<?xml version="1.0" encoding="UTF-8"?>
<svg width="312px" height="258px" viewBox="0 0 312 258" version="1.1" xmlns="http://www.w3.org/2000/svg" xmlns:xlink="http://www.w3.org/1999/xlink">
    <title>多利3.0</title>
    <g id="页面-1" stroke="none" stroke-width="1" fill="none" fill-rule="evenodd">
        <g id="DORY" transform="translate(-335.000000, -712.000000)">
            <g id="多利3.0" transform="translate(335.517822, 712.000000)">
                <g id="编组-4" transform="translate(270.482178, 160.000000) scale(-1, 1) translate(-270.482178, -160.000000) translate(230.482178, 89.000000)">
                    <path d="M40.5696445,33.279061 C29.5237623,40.7567115 18.2811142,44.4955368 6.84170025,44.4955368 C-1.97109086,56.4733779 -2.58488174,92.3656278 6.84170025,103.718239 C21.8840781,97.6113347 37.4275737,101.625872 53.472187,115.761851 L53.4722198,115.761814 C59.7881697,121.326431 69.4192725,120.717356 74.98389,114.401406 C78.2996944,110.637903 79.5515554,105.483916 78.3315928,100.618713 C78.3315928,100.618713 78.3315928,100.618713 78.3315928,100.618713 C74.1020359,83.7512659 82.2004302,77.0030616 79.0835283,50.8719959 C79.0835283,50.8719959 79.0835283,50.8719959 79.0835283,50.8719959 C77.4618914,37.2767324 65.1261562,27.5701902 51.5308927,29.1918272 C47.6034011,29.6602967 43.8450101,31.0617126 40.5696222,33.2790281 Z" id="路径-24" fill="#FFC52D" transform="translate(39.992155, 70.871996) scale(-1, -1) translate(-39.992155, -70.871996) "></path>
                    <path d="M79.8488462,61.8286638 C80.5954965,75.3844161 78.2412244,90.3187108 73.1426104,97.2484549 C61.7031965,97.2484549 50.4605484,100.98728 39.4146662,108.464931 C38.1078756,109.349627 36.724176,110.104412 35.283526,110.721885 C43.9745886,95.0725478 56.5943179,87.2484549 73.1426104,87.2484549 C76.9321106,82.0979833 79.2056156,72.5257374 79.8167235,62.3841533 Z" id="形状结合" fill="#162942"></path>
                    <path d="M32.7831503,31.0102133 C46.6148871,40.9952532 60.0680405,43.3337665 73.1426104,38.0257531 C78.4408022,44.4064656 80.5672605,58.5392005 79.8489206,71.8209495 C79.3037117,61.9486224 77.1143615,52.809008 73.1426104,48.0257531 C56.5252292,54.7720768 43.1093933,49.1664784 32.8951025,31.208958 Z" id="形状结合" fill="#162942"></path>
                </g>
                <path d="M63.2159899,8.60163872 C84.4486993,3.19740194 104.722126,0.495283551 124.036271,0.495283551 C143.893811,0.495283551 164.76537,2.47272404 186.650948,6.42760503 L186.650948,6.4276057 C217.336718,11.9727445 240.654449,37.1467954 243.837426,68.166688 C245.96999,88.9497132 247.036271,108.725912 247.036271,127.495284 C247.036271,150.030977 244.576842,172.327246 239.657984,194.384091 L239.657984,194.384092 C235.054386,215.027267 219.922204,231.721828 199.829179,238.325172 C185.939373,242.889899 170.67507,246.61327 154.036271,249.495284 C136.634501,252.509452 114.535257,254.672217 87.7385385,255.983577 L87.7385385,255.983578 C49.7244794,257.843886 17.1895017,228.990739 14.4929345,191.026836 C13.4834923,176.815297 12.6646045,162.138113 12.0362713,146.995284 C11.0639754,123.562952 10.5460308,100.107318 10.4824375,76.6283831 L10.4824373,76.6283831 C10.395547,44.5480782 32.1267846,16.5145915 63.2159899,8.60163872 Z" id="矩形" fill="#19273C"></path>
                <path d="M155.038878,136.425902 C161.951666,109.352819 169.219589,99 197.507024,99 C225.794459,99 220.006923,140.966742 216.715992,154.112033 C213.425061,167.257325 203.878188,174.311157 182.944123,171.76626 C162.010058,169.221362 148.12609,163.498985 155.038878,136.425902 Z" id="路径-14" fill="#5FADFF"></path>
                <path d="M95.7167627,44.9736561 C116.530822,-3.37338048 154.888107,36.8334662 144.418238,77.0195512 C139.108025,97.4015293 119.268248,180.481163 148.613294,195.206582 C177.288087,209.595667 187.340524,186.160801 243.053838,176.751817 C242.188411,182.092239 241.176585,187.417744 240.022287,192.729379 L239.657984,194.384092 C235.054386,215.027267 219.922204,231.721828 199.829179,238.325172 C185.939373,242.889899 170.67507,246.61327 154.036271,249.495284 C136.924531,252.459216 115.270594,254.599888 89.0744599,255.9173 L87.7385385,255.983578 C49.7244794,257.843886 17.1895017,228.990739 14.4929345,191.026836 C13.4834923,176.815297 12.6646045,162.138113 12.0362713,146.995284 C11.1334251,125.23669 10.622341,103.458004 10.503019,81.6592268 L10.4824373,76.6283831 C10.4173718,52.605896 22.5865308,30.8526082 41.7579827,18.1177577 C42.6153009,25.6039971 41.7631543,31.8420056 39.202601,36.8334662 C90.152766,-14.3941882 95.7167627,44.9736561 95.7167627,44.9736561 Z" id="形状结合" fill="#5FADFF"></path>
                <path d="M16.8534193,48.2502188 C7.60018191,51.0514428 2.1217759,57.9867688 0.418201281,69.0561968 C-1.28537334,80.1256249 2.2157823,90.8816619 10.9216682,101.324308 C16.0495266,94.9917641 19.1102401,85.5010763 20.1038084,72.8522444 C21.0973768,60.2034125 20.0139138,52.0027373 16.8534193,48.2502188 Z" id="路径-22" fill="#19273C"></path>
                <path d="M57.0466563,44.6548637 C41.9376612,46.4691056 27.1091662,75.6517818 38.7570033,90.9639669 C50.4048404,106.276152 82.9319383,97.0399473 84.3234556,76.0856747 C85.7149729,55.131402 72.1556514,42.8406217 57.0466563,44.6548637 Z" id="路径-21" stroke="#19273C" fill="#19273C"></path>
                <path d="M45.1412685,52.5598094 C39.3821052,53.39694 33.7298614,66.8624612 38.1697196,73.9278362 C42.6095778,80.9932113 55.0080774,76.7314257 55.5384883,67.0626688 C56.0688991,57.3939119 50.9004318,51.7226787 45.1412685,52.5598094 Z" id="路径-21" fill="#E0F3FF" transform="translate(46.076045, 64.958750) rotate(10.000000) translate(-46.076045, -64.958750) "></path>
                <path d="M127.912299,203.087727 C114.276242,209.270022 108.526899,230.066854 119.201923,235.773455 C129.876947,241.480057 136.482178,235.394608 142.997376,220.430591 C149.512575,205.466575 191.482178,196.220458 216.164907,165.466161 C233.499744,128.013825 261.873025,64.2439088 255.86874,64.2439088 C197.32593,94.1154355 141.548356,196.905432 127.912299,203.087727 Z" id="路径-25" fill="#FFC52D"></path>
            </g>
        </g>
    </g>
</svg>