<?xml version="1.0" encoding="UTF-8"?>
<svg width="323px" height="262px" viewBox="0 0 323 262" version="1.1" xmlns="http://www.w3.org/2000/svg" xmlns:xlink="http://www.w3.org/1999/xlink">
    <title>多利2.0</title>
    <g id="页面-1" stroke="none" stroke-width="1" fill="none" fill-rule="evenodd">
        <g id="DORY" transform="translate(-931.000000, -418.000000)">
            <g id="多利2.0" transform="translate(1092.500000, 549.000000) scale(-1, 1) translate(-1092.500000, -549.000000) translate(931.000000, 418.000000)">
                <path d="M40.5696445,137.279061 C29.5237623,144.756712 18.2811142,148.495537 6.84170025,148.495537 C-1.97109086,160.473378 -2.58488174,196.365628 6.84170025,207.718239 C21.8840781,201.611335 37.4275737,205.625872 53.472187,219.761851 L53.4722198,219.761814 C59.7881697,225.326431 69.4192725,224.717356 74.98389,218.401406 C78.2996944,214.637903 79.5515554,209.483916 78.3315928,204.618713 C78.3315928,204.618713 78.3315928,204.618713 78.3315928,204.618713 C74.1020359,187.751266 82.2004302,181.003062 79.0835283,154.871996 C79.0835283,154.871996 79.0835283,154.871996 79.0835283,154.871996 C77.4618914,141.276732 65.1261562,131.57019 51.5308927,133.191827 C47.6034011,133.660297 43.8450101,135.061713 40.5696222,137.279028 Z" id="路径-24" fill="#FFC52D" transform="translate(39.992155, 174.871996) scale(-1, -1) translate(-39.992155, -174.871996) "></path>
                <path d="M79.8488462,165.828664 C80.5954965,179.384416 78.2412244,194.318711 73.1426104,201.248455 C61.7031965,201.248455 50.4605484,204.98728 39.4146662,212.464931 C38.1078756,213.349627 36.724176,214.104412 35.283526,214.721885 C43.9745886,199.072548 56.5943179,191.248455 73.1426104,191.248455 C76.9321106,186.097983 79.2056156,176.525737 79.8167235,166.384153 Z" id="形状结合" fill="#162942"></path>
                <path d="M32.7831503,135.010213 C46.6148871,144.995253 60.0680405,147.333766 73.1426104,142.025753 C78.4408022,148.406466 80.5672605,162.5392 79.8489206,175.82095 C79.3037117,165.948622 77.1143615,156.809008 73.1426104,152.025753 C56.5252292,158.772077 43.1093933,153.166478 32.8951025,135.208958 Z" id="形状结合" fill="#162942"></path>
                <path d="M155.652969,0.418834972 C167.10198,0.139611657 178.55099,0 190,0 C201.449847,0 212.899693,0.139632058 224.34954,0.418896175 L224.34954,0.418896364 C279.166004,1.7558812 322.682004,46.9861109 321.901103,101.813316 C321.738877,113.203182 321.43851,124.598743 321,136 C320.581585,146.878782 320.037798,157.543091 319.368639,167.992929 L319.368638,167.992929 C316.063882,219.601203 273.955734,260.176599 222.260435,261.56636 C211.506957,261.855453 200.753478,262 190,262 C179.247392,262 168.494783,261.855477 157.742175,261.56643 C106.052207,260.176925 63.9463666,219.609578 60.6346586,168.007096 C59.9631375,157.543567 59.4182513,146.874535 59,136 C58.5617742,124.60613 58.2621267,113.206529 58.1010574,101.801196 C57.3268361,46.9785286 100.841134,1.75560926 155.652969,0.418834972 Z" id="矩形" fill="#5FADFF"></path>
                <path d="M136.08855,-2.84217094e-14 C145.902704,-2.84217094e-14 155.716858,0.102586818 165.531013,0.307760455 L170.43809,0.418896364 C225.254553,1.7558812 268.770554,46.9861109 267.989653,101.813316 C267.827427,113.203182 267.52706,124.598743 267.08855,136 C266.716626,145.670028 266.245642,155.170597 265.675598,164.501707 L265.457188,167.992929 C265.038654,174.528911 263.997744,180.887934 262.393805,187.012812 C244.150403,183.271536 220.339535,172.128727 195.622658,169.530735 C135.093182,163.168479 116.282777,180.357302 100.47509,159.352492 C84.667403,138.347682 144.914031,113.063335 127.856372,69.4847996 C116.484599,40.432443 93.2302026,33.0043498 58.093182,47.2005199 C63.6196849,25.470963 75.5856394,10.0393983 93.9910456,0.905825904 C96.5470907,0.645653779 99.1314966,0.482489311 101.741519,0.418834972 C113.190529,0.139611657 124.63954,-2.84217094e-14 136.08855,-2.84217094e-14 Z" id="形状结合" fill="#162942" transform="translate(163.046591, 93.506406) scale(-1, 1) translate(-163.046591, -93.506406) "></path>
                <path d="M107.031955,126.991675 C106.21581,116.575436 118.212666,99.5657734 146.500101,99.5657734 C174.787535,99.5657734 200,131.532516 196.709069,144.677807 C193.418138,157.823098 162.871264,154.876931 141.9372,152.332033 C121.003135,149.787135 107.848099,137.407914 107.031955,126.991675 Z" id="路径-14" fill="#5FADFF"></path>
                <circle id="椭圆形" fill="#162942" cx="252" cy="85" r="29"></circle>
                <path d="M265.565224,67.0814368 C259.80606,67.9185675 254.153816,81.3840886 258.593675,88.4494637 C263.033533,95.5148387 275.432032,91.2530531 275.962443,81.5842962 C276.492854,71.9155394 271.324387,66.2443062 265.565224,67.0814368 Z" id="路径-21" fill="#E0F3FF" transform="translate(266.500000, 79.480377) scale(-1, 1) rotate(10.000000) translate(-266.500000, -79.480377) "></path>
                <path d="M83.2520496,206.843818 C69.6159927,213.026113 63.8666495,233.822945 74.5416739,239.529547 C85.2166983,245.236149 91.8219287,239.150699 98.3371273,224.186682 C104.852326,209.222666 146.821929,199.976549 171.504658,169.222252 C188.839495,131.769916 217.212776,68 211.208491,68 C152.665681,97.8715267 96.8881065,200.661523 83.2520496,206.843818 Z" id="路径-25" fill="#FFC52D" transform="translate(140.514112, 154.822008) scale(-1, 1) rotate(20.000000) translate(-140.514112, -154.822008) "></path>
            </g>
        </g>
    </g>
</svg>