<?xml version="1.0" encoding="utf-8" standalone="yes"?><!-- Generator: Adobe Illustrator 19.0.0, SVG Export Plug-In . SVG Version: 6.00 Build 0)  --><svg xmlns="http://www.w3.org/2000/svg" xmlns:xlink="http://www.w3.org/1999/xlink" version="1.1" id="icons" x="0px" y="0px" viewBox="0 0 64 64" style="enable-background:new 0 0 64 64;zoom: 1;" xml:space="preserve"><style type="text/css">
        .st0{display:none;}
        .st1{display:inline;fill:#F1F2F2;}
        .st2{display:inline;fill:#5EDFC5;}
        .st3{display:inline;fill:none;stroke:#414042;stroke-miterlimit:10;}
        .st4{display:inline;fill:#FFFFFF;}
        .st5{display:inline;}
        .st6{fill:#36D7B7;}
        .st7{fill:none;stroke:#414042;stroke-linecap:round;stroke-miterlimit:10;}
        .st8{fill:#F5AB35;}
        .st9{fill:none;stroke:#414042;stroke-miterlimit:10;}
        .st10{display:inline;fill:#D1D3D4;}
        .st11{display:inline;fill:#F5AB35;}
        .st12{fill:#FFFFFF;}
        .st13{fill:#5EDFC5;}
        .st14{clip-path:url(#XMLID_32_);fill:none;stroke:#414042;stroke-width:2;stroke-miterlimit:10;}
        .st15{display:inline;fill:#36D7B7;}
        .st16{display:inline;fill:none;stroke:#414042;stroke-miterlimit:10;stroke-dasharray:1;}
        .st17{fill:#414042;}
        .st18{display:inline;fill:#F9CD86;}
        .st19{display:inline;fill:#E6E7E8;}
        .st20{fill:#F1F2F2;}
        .st21{display:inline;fill:none;stroke:#414042;stroke-linecap:round;stroke-miterlimit:10;}
        .st22{fill:#BCBEC0;}
        .st23{fill:#D1D3D4;}
        .st24{display:inline;fill:#29A189;}
        .st25{fill:#808285;}
        .st26{fill:#EDA633;}
        .st27{fill:#F7BC5D;}
        .st28{display:inline;fill:#F7BC5D;}
        .st29{display:inline;fill:#414042;}
        .st30{fill:#E6E7E8;}
        .st31{fill:#86E7D4;}
        .st32{fill:#29A189;}
        .st33{fill:none;stroke:#36D7B7;stroke-miterlimit:10;}
        .st34{fill:none;stroke:#F5AB35;stroke-miterlimit:10;}
        .st35{fill:#A7A9AC;}
        .st36{fill:#B88028;}
        .st37{fill:#F9CD86;}
</style><g id="XMLID_1_" class="st0"><rect id="XMLID_248_" x="15.4" y="15.3" class="st1" width="33.3" height="35.1"></rect><rect id="XMLID_250_" x="15.9" y="13.5" class="st2" width="32.3" height="3.5"></rect><rect id="XMLID_251_" x="15.9" y="13.5" class="st3" width="32.3" height="3.5"></rect><circle id="XMLID_265_" class="st4" cx="18.4" cy="15.2" r="0.6"></circle><circle id="XMLID_266_" class="st4" cx="20.1" cy="15.2" r="0.6"></circle><circle id="XMLID_267_" class="st4" cx="21.8" cy="15.2" r="0.6"></circle><polyline id="XMLID_496_" class="st3" points="48.6,33.8 48.6,50.4 35.1,50.4"></polyline><line id="XMLID_504_" class="st3" x1="15.4" y1="50.4" x2="28.4" y2="50.5"></line><g id="XMLID_738_" class="st5"><polygon id="XMLID_751_" class="st6" points="33.9,44.3 31.9,43.4 29.8,44.3 29.8,37.7 33.9,37.7"></polygon><polygon id="XMLID_897_" class="st7" points="33.9,44.3 31.9,43.4 29.8,44.3 29.8,37.7 33.9,37.7"></polygon><path id="XMLID_715_" class="st8" d="M36.2,40.6L32,38.5c-0.1,0-0.2,0-0.3,0l-4.1,2.2c-0.2,0.1-0.4-0.1-0.4-0.3l0.7-4.6 c0-0.1,0-0.2-0.1-0.2l-3.4-3.2c-0.2-0.2-0.1-0.4,0.1-0.5l4.6-0.7c0.1,0,0.2-0.1,0.2-0.2l2-4.2c0.1-0.2,0.4-0.2,0.5,0l2.1,4.2 c0,0.1,0.1,0.1,0.2,0.1l4.7,0.6c0.2,0,0.3,0.3,0.2,0.5l-3.3,3.3c-0.1,0.1-0.1,0.2-0.1,0.2l0.9,4.6C36.6,40.5,36.4,40.7,36.2,40.6z"></path><line id="XMLID_717_" class="st9" x1="31.8" y1="23.1" x2="31.8" y2="25"></line><line id="XMLID_716_" class="st9" x1="34.6" y1="23.5" x2="34.2" y2="25.3"></line><line id="XMLID_718_" class="st9" x1="37.3" y1="24.6" x2="36.3" y2="26.2"></line><line id="XMLID_719_" class="st9" x1="39.6" y1="26.4" x2="38.2" y2="27.7"></line><line id="XMLID_720_" class="st9" x1="41.3" y1="28.6" x2="39.7" y2="29.6"></line><line id="XMLID_721_" class="st9" x1="42.4" y1="31.3" x2="40.6" y2="31.8"></line><line id="XMLID_722_" class="st9" x1="42.7" y1="34.1" x2="40.9" y2="34.1"></line><line id="XMLID_723_" class="st9" x1="42.4" y1="37" x2="40.5" y2="36.5"></line><line id="XMLID_724_" class="st9" x1="41.2" y1="39.6" x2="39.6" y2="38.7"></line><line id="XMLID_725_" class="st9" x1="39.5" y1="41.9" x2="38.2" y2="40.5"></line><line id="XMLID_737_" class="st9" x1="37.2" y1="43.6" x2="36.3" y2="42"></line><line id="XMLID_741_" class="st9" x1="26.2" y1="43.5" x2="27.2" y2="41.9"></line><line id="XMLID_742_" class="st9" x1="24" y1="41.7" x2="25.3" y2="40.4"></line><line id="XMLID_743_" class="st9" x1="22.2" y1="39.4" x2="23.9" y2="38.5"></line><line id="XMLID_744_" class="st9" x1="21.2" y1="36.8" x2="23" y2="36.3"></line><line id="XMLID_745_" class="st9" x1="20.8" y1="33.9" x2="22.7" y2="33.9"></line><line id="XMLID_746_" class="st9" x1="21.3" y1="31.1" x2="23.1" y2="31.6"></line><line id="XMLID_747_" class="st9" x1="22.4" y1="28.5" x2="24" y2="29.4"></line><line id="XMLID_748_" class="st9" x1="24.2" y1="26.2" x2="25.5" y2="27.6"></line><line id="XMLID_749_" class="st9" x1="26.5" y1="24.5" x2="27.4" y2="26.1"></line><line id="XMLID_750_" class="st9" x1="29.2" y1="23.5" x2="29.6" y2="25.3"></line></g></g><g id="XMLID_61_" class="st0"><rect id="XMLID_673_" x="11.3" y="14.3" class="st10" width="40.8" height="24.3"></rect><rect id="XMLID_672_" x="13.6" y="16.7" class="st11" width="36.4" height="19.2"></rect><line id="XMLID_46_" class="st3" x1="18.4" y1="22.7" x2="25.1" y2="22.7"></line><line id="XMLID_47_" class="st3" x1="14.4" y1="24.8" x2="22.3" y2="24.8"></line><line id="XMLID_60_" class="st3" x1="26.3" y1="24.8" x2="23.2" y2="24.8"></line><line id="XMLID_52_" class="st3" x1="25.6" y1="27.3" x2="18.9" y2="27.3"></line><line id="XMLID_53_" class="st3" x1="11.7" y1="27.3" x2="17.2" y2="27.3"></line><line id="XMLID_51_" class="st3" x1="53.7" y1="24.8" x2="38.8" y2="24.8"></line><line id="XMLID_54_" class="st3" x1="56.6" y1="27.3" x2="44.2" y2="27.3"></line><line id="XMLID_55_" class="st3" x1="39.3" y1="27.3" x2="42.6" y2="27.3"></line><line id="XMLID_50_" class="st3" x1="44.2" y1="22" x2="48.6" y2="22"></line><line id="XMLID_59_" class="st3" x1="41.7" y1="22" x2="36.8" y2="22"></line><line id="XMLID_13_" class="st3" x1="16.7" y1="22.7" x2="7.4" y2="22.7"></line><g id="XMLID_1479_" class="st5"><line id="XMLID_1488_" class="st9" x1="31.8" y1="30.6" x2="31.8" y2="33.1"></line><path id="XMLID_1485_" class="st12" d="M31.8,18.6c-3.4,0-6.1,2.7-6.1,6.1s2.7,6.1,6.1,6.1c3.4,0,6.1-2.7,6.1-6.1 S35.2,18.6,31.8,18.6z M31.8,30.2c-3,0-5.4-2.4-5.4-5.4c0-3,2.4-5.4,5.4-5.4c3,0,5.4,2.4,5.4,5.4C37.2,27.8,34.8,30.2,31.8,30.2z"></path><path id="XMLID_1483_" class="st13" d="M30.6,32.4V42c0,0.7,0.5,1.2,1.2,1.2V32.4H30.6z"></path><path id="XMLID_1482_" class="st6" d="M31.8,32.4v10.8c0.7,0,1.2-0.5,1.2-1.2v-9.6H31.8z"></path><line id="XMLID_1481_" class="st9" x1="30.5" y1="34.1" x2="33" y2="34.1"></line><line id="XMLID_1480_" class="st9" x1="30.5" y1="35.7" x2="33" y2="35.7"></line></g><rect id="XMLID_676_" x="25.6" y="42.3" class="st1" width="12.3" height="7.3"></rect><rect id="XMLID_675_" x="25.6" y="42.3" class="st10" width="12.3" height="3.6"></rect><rect id="XMLID_674_" x="25.6" y="42.3" class="st3" width="12.3" height="7.3"></rect><rect id="XMLID_668_" x="11.3" y="37.7" class="st4" width="40.8" height="5.5"></rect><rect id="XMLID_667_" x="11.7" y="37.7" class="st3" width="40" height="5.5"></rect><line id="XMLID_666_" class="st3" x1="23.2" y1="49.7" x2="40.5" y2="49.7"></line><g id="XMLID_58_" class="st5"><defs><circle id="XMLID_57_" cx="31.8" cy="24.8" r="5.4"></circle></defs><clipPath id="XMLID_32_"><use xlink:href="#XMLID_57_" style="overflow:visible;"></use></clipPath><line id="XMLID_48_" class="st14" x1="36" y1="24.8" x2="23.7" y2="24.8"></line><line id="XMLID_49_" class="st14" x1="43.2" y1="22" x2="32.4" y2="22"></line><line id="XMLID_56_" class="st14" x1="31.3" y1="27.3" x2="34.6" y2="27.3"></line></g></g><g id="XMLID_2_" class="st0"><circle id="XMLID_65_" class="st1" cx="28.4" cy="32" r="15.7"></circle><path id="XMLID_72_" class="st3" d="M17.3,20.9c1.4-1.4,3.1-2.6,5-3.4c1.9-0.8,4-1.2,6.1-1.2c2.2,0,4.2,0.4,6.1,1.2 c1.9,0.8,3.6,1.9,5,3.4"></path><path id="XMLID_66_" class="st3" d="M39.5,43.1c-1.4,1.4-3.1,2.6-5,3.4c-1.9,0.8-4,1.2-6.1,1.2c-2.2,0-4.2-0.4-6.1-1.2 c-1.9-0.8-3.6-1.9-5-3.4"></path><circle id="XMLID_64_" class="st15" cx="28.4" cy="32" r="11.4"></circle><circle id="XMLID_63_" class="st1" cx="28.4" cy="32" r="7"></circle><circle id="XMLID_62_" class="st15" cx="28.4" cy="32" r="3.2"></circle><g id="XMLID_1067_" class="st5"><line id="XMLID_1064_" class="st9" x1="28.1" y1="32.1" x2="51.4" y2="32.1"></line><line id="XMLID_1065_" class="st9" x1="44.4" y1="32.1" x2="46.5" y2="30.1"></line><line id="XMLID_430_" class="st9" x1="46.5" y1="32.1" x2="48.6" y2="30.1"></line><line id="XMLID_1066_" class="st9" x1="48.6" y1="32.1" x2="50.6" y2="30.1"></line><line id="XMLID_1070_" class="st9" x1="50.6" y1="34.1" x2="48.6" y2="32.1"></line><line id="XMLID_1069_" class="st9" x1="48.6" y1="34.1" x2="46.5" y2="32.1"></line><line id="XMLID_1068_" class="st9" x1="46.5" y1="34.1" x2="44.4" y2="32.1"></line></g><line id="XMLID_68_" class="st16" x1="31.6" y1="28.4" x2="42.2" y2="17.7"></line><line id="XMLID_67_" class="st16" x1="14.5" y1="46.4" x2="25.2" y2="35.8"></line><line id="XMLID_71_" class="st16" x1="25.2" y1="28.4" x2="14.5" y2="17.7"></line><line id="XMLID_70_" class="st16" x1="42.2" y1="46.4" x2="31.6" y2="35.8"></line></g><g id="XMLID_3_" class="st0"><path id="XMLID_243_" class="st10" d="M51,49.4H12.8c-0.6,0-1-0.5-1-1V25.5c0-0.5,0.4-1,1-1H51c0.6,0,1,0.5,1,1v22.9 C52,49,51.6,49.4,51,49.4z"></path><rect id="XMLID_242_" x="13.7" y="26.8" class="st4" width="36.1" height="19.5"></rect><path id="XMLID_241_" class="st1" d="M51.5,50.7H12.2c-0.9,0-1.7-0.7-1.9-1.6l-0.3-1.7h43.9l-0.2,1.5C53.5,50,52.6,50.7,51.5,50.7z"></path><path id="XMLID_240_" class="st3" d="M51.5,50.7H12.2c-0.9,0-1.7-0.7-1.9-1.6l-0.3-1.7h43.9l-0.2,1.5C53.5,50,52.6,50.7,51.5,50.7z"></path><line id="XMLID_69_" class="st3" x1="40.3" y1="17.5" x2="46.1" y2="17.5"></line><line id="XMLID_79_" class="st3" x1="29.8" y1="21.6" x2="40.8" y2="21.6"></line><line id="XMLID_80_" class="st3" x1="15" y1="17.1" x2="26.1" y2="17.1"></line><g id="XMLID_75_" class="st5"><circle id="XMLID_92_" class="st8" cx="31.6" cy="25.8" r="1.8"></circle><g id="XMLID_76_"><g id="XMLID_259_"><path id="XMLID_260_" class="st17" d="M31.5,26.6v-0.1c-0.2,0-0.3-0.1-0.5-0.2l0.2-0.2c0.1,0.1,0.2,0.2,0.3,0.2v-0.3 c-0.1,0-0.2-0.1-0.3-0.1c-0.1-0.1-0.1-0.2-0.1-0.3c0-0.1,0-0.2,0.1-0.3c0.1-0.1,0.2-0.1,0.3-0.1V25h0.2v0.1 c0.1,0,0.3,0.1,0.4,0.2L32,25.5c-0.1-0.1-0.2-0.1-0.2-0.1v0.3c0.1,0,0.3,0.1,0.3,0.2c0.1,0.1,0.1,0.2,0.1,0.3 c0,0.1,0,0.2-0.1,0.3c-0.1,0.1-0.2,0.1-0.3,0.1v0.1H31.5z M31.5,25.3c-0.1,0-0.1,0.1-0.1,0.1c0,0.1,0,0.1,0.1,0.1V25.3z M31.8,26.1C31.8,26.1,31.8,26,31.8,26.1c0-0.1-0.1-0.1-0.1-0.1v0.2C31.8,26.2,31.8,26.2,31.8,26.1z"></path></g></g></g><g id="XMLID_73_" class="st5"><circle id="XMLID_87_" class="st8" cx="25.4" cy="21.6" r="2.5"></circle><g id="XMLID_74_"><g id="XMLID_271_"><path id="XMLID_272_" class="st17" d="M25.3,22.8v-0.2c-0.2,0-0.5-0.1-0.7-0.3l0.3-0.3c0.1,0.1,0.3,0.2,0.4,0.2v-0.4 c-0.2-0.1-0.3-0.1-0.4-0.2c-0.1-0.1-0.1-0.2-0.1-0.4c0-0.2,0.1-0.3,0.2-0.4c0.1-0.1,0.2-0.2,0.4-0.2v-0.1h0.3v0.1 c0.2,0,0.4,0.1,0.6,0.2l-0.2,0.3c-0.1-0.1-0.2-0.1-0.3-0.2v0.4c0.2,0.1,0.4,0.1,0.4,0.2c0.1,0.1,0.1,0.2,0.1,0.4 c0,0.2-0.1,0.3-0.2,0.4c-0.1,0.1-0.3,0.2-0.4,0.2v0.2H25.3z M25.3,21c-0.1,0-0.1,0.1-0.1,0.2c0,0.1,0,0.1,0.1,0.2V21z M25.7,22 C25.7,22,25.7,22,25.7,22c-0.1-0.1-0.1-0.1-0.1-0.2v0.3C25.7,22.2,25.7,22.1,25.7,22z"></path></g></g></g><g id="XMLID_77_" class="st5"><circle id="XMLID_99_" class="st8" cx="36.2" cy="17.5" r="3"></circle><g id="XMLID_78_"><g id="XMLID_479_"><path id="XMLID_480_" class="st17" d="M36,18.8v-0.2c-0.3,0-0.5-0.2-0.8-0.4l0.3-0.4c0.2,0.2,0.3,0.2,0.5,0.3v-0.5 c-0.2-0.1-0.4-0.1-0.5-0.2c-0.1-0.1-0.2-0.2-0.2-0.4c0-0.2,0.1-0.3,0.2-0.5c0.1-0.1,0.3-0.2,0.5-0.2v-0.2h0.4v0.2 c0.2,0,0.4,0.1,0.7,0.3l-0.3,0.4c-0.1-0.1-0.3-0.2-0.4-0.2v0.5c0.2,0.1,0.4,0.1,0.5,0.3c0.1,0.1,0.2,0.3,0.2,0.4 c0,0.2-0.1,0.4-0.2,0.5c-0.1,0.1-0.3,0.2-0.5,0.2v0.2H36z M36,16.7c-0.1,0-0.1,0.1-0.1,0.2c0,0.1,0,0.2,0.1,0.2V16.7z M36.5,17.9c0,0,0-0.1,0-0.1c0,0-0.1-0.1-0.1-0.1v0.4C36.5,18.1,36.5,18,36.5,17.9z"></path></g></g></g><g id="XMLID_366_" class="st5"><g id="XMLID_386_"><line id="XMLID_363_" class="st9" x1="31.7" y1="29.6" x2="31.7" y2="32.8"></line><line id="XMLID_358_" class="st9" x1="35.3" y1="30.6" x2="33.7" y2="33.3"></line><line id="XMLID_364_" class="st9" x1="37.9" y1="33.2" x2="35.1" y2="34.8"></line><line id="XMLID_365_" class="st9" x1="38.9" y1="36.8" x2="35.7" y2="36.8"></line><line id="XMLID_368_" class="st9" x1="31.6" y1="44" x2="31.6" y2="40.8"></line><line id="XMLID_369_" class="st9" x1="28" y1="43" x2="29.6" y2="40.3"></line><line id="XMLID_370_" class="st9" x1="25.4" y1="40.3" x2="28.2" y2="38.8"></line><line id="XMLID_371_" class="st9" x1="24.5" y1="36.7" x2="27.7" y2="36.8"></line><line id="XMLID_372_" class="st9" x1="25.5" y1="33.1" x2="28.2" y2="34.8"></line><line id="XMLID_373_" class="st9" x1="28.2" y1="30.5" x2="29.7" y2="33.3"></line></g><polygon id="XMLID_387_" class="st17" points="35.8,39.9 38.6,42.7 37.6,43.7 34.8,40.9 34.3,43 31.7,36.8 37.9,39.4"></polygon></g><g id="XMLID_708_" class="st5"><line id="XMLID_710_" class="st9" x1="27.8" y1="13.3" x2="30.1" y2="15.6"></line><line id="XMLID_709_" class="st9" x1="27.8" y1="15.6" x2="30.1" y2="13.3"></line></g><g id="XMLID_81_" class="st5"><line id="XMLID_93_" class="st9" x1="44.9" y1="20.7" x2="47.2" y2="23"></line><line id="XMLID_82_" class="st9" x1="44.9" y1="23" x2="47.2" y2="20.7"></line></g><g id="XMLID_94_" class="st5"><line id="XMLID_101_" class="st9" x1="15.8" y1="19.8" x2="18.1" y2="22.2"></line><line id="XMLID_100_" class="st9" x1="15.8" y1="22.2" x2="18.1" y2="19.8"></line></g></g><g id="XMLID_783_" class="st0"><path id="XMLID_110_" class="st15" d="M54.3,31.9c0-0.5-0.4-1-1-1c-0.2,0-0.3,0-0.4,0.1c-0.2-0.4-0.5-0.6-1-0.7 c0-0.1,0.1-0.2,0.1-0.3c0-0.9-0.7-1.6-1.6-1.6c-0.4,0-0.8,0.2-1.1,0.4c-0.1-1.6-1.4-2.8-3-2.8c-1.4,0-2.5,0.9-2.9,2.2 c-0.1,0-0.3,0-0.4,0c-1,0-1.8,0.7-2,1.5c-0.2-0.1-0.4-0.1-0.7-0.1c-1,0-1.9,0.8-1.9,1.9c0,0.4,0.1,0.7,0.3,0.9h15.5 C54.3,32.2,54.3,32.1,54.3,31.9z"></path><path id="XMLID_105_" class="st15" d="M23,25.6c0-0.5-0.4-0.8-0.8-0.8c-0.1,0-0.2,0-0.4,0.1c-0.2-0.3-0.5-0.5-0.8-0.6 c0-0.1,0-0.2,0-0.2c0-0.8-0.6-1.4-1.4-1.4c-0.4,0-0.7,0.1-0.9,0.4c-0.1-1.3-1.2-2.4-2.5-2.4c-1.2,0-2.1,0.8-2.4,1.9 c-0.1,0-0.2,0-0.3,0c-0.8,0-1.5,0.6-1.7,1.3c-0.2-0.1-0.4-0.1-0.6-0.1c-0.9,0-1.6,0.7-1.6,1.6c0,0.3,0.1,0.6,0.2,0.8h13 C23,25.9,23,25.7,23,25.6z"></path><path id="XMLID_108_" class="st2" d="M46.4,35.8c0-1.3-1-2.3-2.3-2.3c-0.3,0-0.7,0.1-1,0.2c-0.4-0.9-1.2-1.5-2.2-1.7 c0-0.2,0.1-0.4,0.1-0.7c0-2.1-1.7-3.8-3.8-3.8c-1,0-1.9,0.4-2.5,1c-0.3-3.6-3.2-6.5-6.9-6.5c-3.2,0-5.9,2.2-6.7,5.1 c-0.3-0.1-0.6-0.1-0.9-0.1c-2.2,0-4.1,1.5-4.6,3.6c-0.5-0.2-1-0.3-1.6-0.3c-2.4,0-4.3,1.9-4.3,4.3c0,0.8,0.3,1.5,0.7,2.2h35.7 C46.2,36.6,46.4,36.2,46.4,35.8z"></path><line id="XMLID_477_" class="st3" x1="36.5" y1="36.9" x2="46.4" y2="36.9"></line><line id="XMLID_491_" class="st3" x1="10.3" y1="36.9" x2="17.3" y2="36.9"></line><path id="XMLID_495_" class="st15" d="M19.5,28.1c2.3,0,4.1,1.9,4.1,4.1c0,0.5-0.1,0.9-0.2,1.3c0.4-0.7,0.7-1.4,0.7-2.3 c0-2.3-1.9-4.1-4.1-4.1h0c-1.8,0-3.3,1.2-3.9,2.8C16.8,28.8,18.1,28.1,19.5,28.1z"></path><path id="XMLID_492_" class="st15" d="M40,32.6c-1,0.7-2.4,0.5-3.2-0.5c-0.1-0.2-0.2-0.4-0.3-0.7c0,0.4,0.1,0.9,0.4,1.2 c0.7,1,2.1,1.3,3.2,0.5l0,0c0.8-0.6,1.1-1.6,0.9-2.5C41,31.4,40.6,32.1,40,32.6z"></path><path id="XMLID_389_" class="st3" d="M41,31.4c0-2.1-1.7-3.8-3.8-3.8c-1,0-1.9,0.4-2.5,1c-0.3-3.6-3.2-6.5-6.9-6.5 c-3.2,0-5.9,2.2-6.7,5.1"></path><path id="XMLID_102_" class="st4" d="M33.6,35.1l-1.2,0c-0.1-0.6-0.4-1.2-0.7-1.7l0.8-0.8c0.3-0.3,0.3-0.8,0-1.1L32,31 c-0.3-0.3-0.8-0.3-1.1,0l-0.8,0.8c-0.5-0.3-1.1-0.6-1.7-0.7V30c0-0.4-0.3-0.7-0.7-0.7h-0.9c-0.4,0-0.7,0.3-0.7,0.7v1.2 c-0.6,0.1-1.1,0.4-1.6,0.7L23.7,31c-0.3-0.3-0.8-0.3-1.1,0L22,31.6c-0.3,0.3-0.3,0.8,0,1.1l0.8,0.8c-0.3,0.5-0.6,1.1-0.7,1.7 l-1.2,0c-0.4,0-0.7,0.3-0.7,0.7l0,0.9c0,0.4,0.3,0.7,0.7,0.7l1.2,0c0.1,0.6,0.4,1.2,0.7,1.7l-0.8,0.8c-0.3,0.3-0.3,0.8,0,1.1 l0.6,0.6c0.3,0.3,0.8,0.3,1.1,0l0.8-0.8c0.5,0.3,1.1,0.6,1.7,0.7l0,1.2c0,0.4,0.3,0.7,0.7,0.7l0.9,0c0.4,0,0.7-0.3,0.7-0.7l0-1.2 c0.6-0.1,1.2-0.4,1.7-0.7l0.8,0.8c0.3,0.3,0.8,0.3,1.1,0l0.6-0.6c0.3-0.3,0.3-0.8,0-1.1l-0.8-0.8c0.3-0.5,0.6-1.1,0.7-1.7l1.2,0 c0.4,0,0.7-0.3,0.7-0.7v-0.9C34.4,35.5,34,35.1,33.6,35.1z M27.3,38.7c-1.3,0-2.4-1.1-2.4-2.4c0-1.3,1.1-2.4,2.4-2.4 c1.3,0,2.4,1.1,2.4,2.4C29.6,37.6,28.6,38.7,27.3,38.7z"></path><path id="XMLID_625_" class="st3" d="M33.6,35.1l-1.2,0c-0.1-0.6-0.4-1.2-0.7-1.7l0.8-0.8c0.3-0.3,0.3-0.8,0-1.1L32,31 c-0.3-0.3-0.8-0.3-1.1,0l-0.8,0.8c-0.5-0.3-1.1-0.6-1.7-0.7V30c0-0.4-0.3-0.7-0.7-0.7h-0.9c-0.4,0-0.7,0.3-0.7,0.7v1.2 c-0.6,0.1-1.1,0.4-1.6,0.7L23.7,31c-0.3-0.3-0.8-0.3-1.1,0L22,31.6c-0.3,0.3-0.3,0.8,0,1.1l0.8,0.8c-0.3,0.5-0.6,1.1-0.7,1.7 l-1.2,0c-0.4,0-0.7,0.3-0.7,0.7l0,0.9c0,0.4,0.3,0.7,0.7,0.7l1.2,0c0.1,0.6,0.4,1.2,0.7,1.7l-0.8,0.8c-0.3,0.3-0.3,0.8,0,1.1 l0.6,0.6c0.3,0.3,0.8,0.3,1.1,0l0.8-0.8c0.5,0.3,1.1,0.6,1.7,0.7l0,1.2c0,0.4,0.3,0.7,0.7,0.7l0.9,0c0.4,0,0.7-0.3,0.7-0.7l0-1.2 c0.6-0.1,1.2-0.4,1.7-0.7l0.8,0.8c0.3,0.3,0.8,0.3,1.1,0l0.6-0.6c0.3-0.3,0.3-0.8,0-1.1l-0.8-0.8c0.3-0.5,0.6-1.1,0.7-1.7l1.2,0 c0.4,0,0.7-0.3,0.7-0.7v-0.9C34.4,35.5,34,35.1,33.6,35.1z M27.3,38.7c-1.3,0-2.4-1.1-2.4-2.4c0-1.3,1.1-2.4,2.4-2.4 c1.3,0,2.4,1.1,2.4,2.4C29.6,37.6,28.6,38.7,27.3,38.7z"></path></g><g id="XMLID_183_" class="st0"><line id="XMLID_109_" class="st3" x1="31.9" y1="50.9" x2="39.2" y2="50.9"></line><line id="XMLID_107_" class="st3" x1="31.9" y1="47.1" x2="36.3" y2="47.1"></line><rect id="XMLID_106_" x="30.9" y="34.6" class="st18" width="1.8" height="18.8"></rect><rect id="XMLID_130_" x="32.1" y="34.6" class="st11" width="0.9" height="18.8"></rect><g id="XMLID_111_" class="st5"><path id="XMLID_114_" class="st17" d="M28.5,25.1l-0.5,1.2h-1l2.4-5.4h1l2.4,5.4h-1l-0.5-1.2H28.5z M30.8,24.2l-1-2.2l-1,2.2H30.8 z"></path><path id="XMLID_127_" class="st17" d="M36.6,26.3h-0.8v-0.5c-0.3,0.4-0.8,0.6-1.4,0.6c-0.4,0-0.8-0.1-1.1-0.4S33,25.4,33,25 c0-0.4,0.1-0.7,0.4-0.9c0.3-0.2,0.7-0.3,1.2-0.3h1.1v-0.2c0-0.5-0.3-0.8-0.9-0.8c-0.4,0-0.8,0.1-1.2,0.4l-0.4-0.5 c0.5-0.4,1.1-0.6,1.7-0.6c0.5,0,0.9,0.1,1.2,0.4c0.3,0.2,0.5,0.6,0.5,1.2V26.3z M35.8,24.8v-0.3h-1c-0.6,0-0.9,0.2-0.9,0.6 c0,0.2,0.1,0.4,0.2,0.5c0.2,0.1,0.4,0.2,0.6,0.2c0.3,0,0.5-0.1,0.7-0.2C35.7,25.2,35.8,25,35.8,24.8z"></path></g><circle id="XMLID_131_" class="st16" cx="32" cy="24.4" r="13.8"></circle><path id="XMLID_138_" class="st18" d="M32,13.2c-6.2,0-11.2,5-11.2,11.2s5,11.2,11.2,11.2s11.2-5,11.2-11.2S38.2,13.2,32,13.2z M32,34c-5.3,0-9.6-4.3-9.6-9.6s4.3-9.6,9.6-9.6s9.6,4.3,9.6,9.6S37.3,34,32,34z"></path><path id="XMLID_150_" class="st11" d="M32,14.2c-5.6,0-10.2,4.6-10.2,10.2S26.4,34.6,32,34.6S42.2,30,42.2,24.4S37.6,14.2,32,14.2z M32,34c-5.3,0-9.6-4.3-9.6-9.6s4.3-9.6,9.6-9.6s9.6,4.3,9.6,9.6S37.3,34,32,34z"></path><path id="XMLID_115_" class="st3" d="M32,16.5c4.4,0,7.9,3.5,7.9,7.9"></path></g><g id="XMLID_182_" class="st0"><path id="XMLID_805_" class="st19" d="M45.9,21.4v14h-1.8v2.4v4.5c0,0.2-0.3,0.4-0.5,0.2l-5.9-7H20.1v-14H45.9z"></path><path id="XMLID_151_" class="st3" d="M45.9,21.4v14h-1.8v2.4v4.5c0,0.2-0.3,0.4-0.5,0.2l-5.9-7H20.1v-14H45.9z"></path><line id="XMLID_819_" class="st3" x1="33" y1="44.5" x2="49.3" y2="44.5"></line><line id="XMLID_154_" class="st3" x1="14.7" y1="48" x2="29.1" y2="48"></line><line id="XMLID_156_" class="st3" x1="14.7" y1="51.6" x2="33.6" y2="51.6"></line><line id="XMLID_155_" class="st3" x1="39.5" y1="48" x2="30.3" y2="48"></line><line id="XMLID_152_" class="st3" x1="31.5" y1="44.5" x2="26.7" y2="44.5"></line><line id="XMLID_153_" class="st3" x1="14.7" y1="44.5" x2="24.9" y2="44.5"></line><path id="XMLID_141_" class="st15" d="M14.7,25c0-7,5.5-12.7,12.6-12.5c6.5,0.1,11.9,5.4,12.3,11.9c0.4,7.2-5.4,13.2-12.5,13.2 c-2.3,0-4.5-0.7-6.4-1.8l-5.3,5.7c-0.2,0.2-0.6,0.1-0.6-0.2V25z"></path><circle id="XMLID_140_" class="st4" cx="22.6" cy="24.5" r="1.6"></circle><circle id="XMLID_113_" class="st4" cx="27.7" cy="24.5" r="1.6"></circle><circle id="XMLID_116_" class="st4" cx="32.7" cy="24.5" r="1.6"></circle></g><g id="XMLID_181_" class="st0"><g id="XMLID_493_" class="st5"><circle id="XMLID_503_" class="st7" cx="39.6" cy="28" r="10.2"></circle><path id="XMLID_502_" class="st7" d="M43.2,18.4c1.5,2.5,2.5,5.8,2.5,9.5c0,3.7-1,7.1-2.5,9.6"></path><path id="XMLID_501_" class="st7" d="M36.3,18.4c-1.5,2.5-2.5,5.8-2.5,9.5c0,3.7,1,7.1,2.5,9.6"></path><line id="XMLID_498_" class="st7" x1="39.6" y1="17.8" x2="39.6" y2="38.2"></line><line id="XMLID_497_" class="st7" x1="29.4" y1="28" x2="49.8" y2="28"></line><line id="XMLID_157_" class="st7" x1="31" y1="23.1" x2="48.6" y2="23.1"></line><line id="XMLID_494_" class="st7" x1="30.6" y1="32.8" x2="48.4" y2="32.8"></line></g><g id="XMLID_159_" class="st5"><path id="XMLID_160_" class="st20" d="M35.4,36.2c0.9-2.7,1.5-6,1.6-9.9c-0.7,0-2.5,0.1-4.1,0.1c-1.1,0-1.8,0-2.3-0.1 c-2-0.3-3.2-1.2-3.7-1.7c0,0-0.1,0.1-0.1,0.1v11.5H35.4z"></path><path id="XMLID_161_" class="st8" d="M26.8,24.7c-0.5,0.5-1.7,1.4-3.5,1.6c-0.5,0.1-1.4,0.1-2.6,0.1c-1.6,0-3.3-0.1-4.1-0.1 c0,4,0.6,7.3,1.5,9.9h8.6V24.7z"></path><path id="XMLID_162_" class="st8" d="M26.8,36.2v11.6c0.6-0.3,2.8-1.7,5-4.7c1.2-1.6,2.6-3.9,3.6-7H26.8z"></path><path id="XMLID_163_" class="st20" d="M18.2,36.2c1,3.1,2.4,5.5,3.6,7.1c2.2,2.9,4.4,4.2,5,4.5c0,0,0,0,0,0V36.2H18.2z"></path></g><path id="XMLID_158_" class="st3" d="M28.2,25.5c-0.6-0.3-1-0.7-1.3-0.9c0,0-0.1,0.1-0.1,0.1c-0.5,0.5-1.7,1.4-3.5,1.6 c-0.5,0.1-1.4,0.1-2.6,0.1c-1.6,0-3.3-0.1-4.1-0.1c0,4,0.6,7.3,1.5,9.9c1,3.1,2.4,5.5,3.6,7.1c2.2,2.9,4.4,4.2,5,4.5c0,0,0,0,0,0 c0.6-0.3,2.8-1.7,5-4.7"></path><g id="XMLID_142_" class="st5"><line id="XMLID_165_" class="st9" x1="36.7" y1="41" x2="38.8" y2="43.1"></line><line id="XMLID_164_" class="st9" x1="36.7" y1="43.1" x2="38.8" y2="41"></line></g><g id="XMLID_175_" class="st5"><line id="XMLID_177_" class="st9" x1="21.1" y1="12.8" x2="23.1" y2="14.9"></line><line id="XMLID_176_" class="st9" x1="21.1" y1="14.9" x2="23.1" y2="12.8"></line></g><g id="XMLID_172_" class="st5"><line id="XMLID_174_" class="st9" x1="25" y1="21" x2="26.5" y2="22.4"></line><line id="XMLID_173_" class="st9" x1="25" y1="22.4" x2="26.5" y2="21"></line></g><g id="XMLID_166_" class="st5"><line id="XMLID_168_" class="st9" x1="45.5" y1="43.4" x2="47.9" y2="45.8"></line><line id="XMLID_167_" class="st9" x1="45.5" y1="45.8" x2="47.9" y2="43.4"></line></g><g id="XMLID_169_" class="st5"><line id="XMLID_171_" class="st9" x1="39.1" y1="48.7" x2="41.6" y2="51.2"></line><line id="XMLID_170_" class="st9" x1="39.1" y1="51.2" x2="41.6" y2="48.7"></line></g><g id="XMLID_178_" class="st5"><line id="XMLID_180_" class="st9" x1="14.2" y1="18.5" x2="16.7" y2="21"></line><line id="XMLID_179_" class="st9" x1="14.2" y1="21" x2="16.7" y2="18.5"></line></g></g><g id="XMLID_199_" class="st0"><path id="XMLID_1355_" class="st15" d="M39.3,45.2v-3.4c0-3.7-3.1-6.8-6.8-6.8l0,0c-3.7,0-6.8,3.1-6.8,6.8v3.4H39.3z"></path><line id="XMLID_1368_" class="st3" x1="29.2" y1="41.3" x2="29.2" y2="45.2"></line><line id="XMLID_1367_" class="st3" x1="36.1" y1="41.3" x2="36.1" y2="45.2"></line><path id="XMLID_193_" class="st4" d="M26.9,30.6h-0.3c-0.4,0-0.7-0.3-0.7-0.7v-1.1c0-0.4,0.3-0.7,0.7-0.7h0.3V30.6z"></path><path id="XMLID_192_" class="st4" d="M38.3,30.6h0.3c0.4,0,0.7-0.3,0.7-0.7v-1.1c0-0.4-0.3-0.7-0.7-0.7h-0.3V30.6z"></path><path id="XMLID_191_" class="st21" d="M26.9,30.6h-0.3c-0.4,0-0.7-0.3-0.7-0.7v-1.1c0-0.4,0.3-0.7,0.7-0.7h0.3V30.6z"></path><path id="XMLID_190_" class="st21" d="M38.3,30.6h0.3c0.4,0,0.7-0.3,0.7-0.7v-1.1c0-0.4-0.3-0.7-0.7-0.7h-0.3V30.6z"></path><path id="XMLID_189_" class="st4" d="M26.9,25.9v4.8c0,3.1,2.5,5.7,5.7,5.7l0,0c3.1,0,5.7-2.5,5.7-5.7v-4.5c-0.7-4-4.3-5.1-6-5.1 C30.6,21.1,27.5,22.8,26.9,25.9z"></path><path id="XMLID_188_" class="st11" d="M38.2,27.6c0,0-2.9-3.4-7.6-3.9l-3.7,4.1c0,0-1-5.8,5.4-6.7C32.3,21.1,38.3,20.9,38.2,27.6z"></path><path id="XMLID_187_" class="st3" d="M26.9,27.7c0,0,2.4-1.4,3.7-4.1c0,0,5.8,1,7.6,3.9"></path><path id="XMLID_186_" class="st3" d="M38.2,26.7c0-3.1-2.5-5.7-5.7-5.7l0,0c-3.1,0-5.7,2.5-5.7,5.7v3.9c0,3.1,2.5,5.7,5.7,5.7l0,0 c3.1,0,5.7-2.5,5.7-5.7V26.7z"></path><path id="XMLID_185_" class="st11" d="M37.9,19.7c0,0-4,4-7.6,2.3c0,0-0.9,3.4,4,3.1C34.4,25,39.3,24.9,37.9,19.7z"></path><path id="XMLID_184_" class="st21" d="M30.4,23.1c0.2,1,1,2.1,4,1.9c0,0,5-0.1,3.6-5.3c0,0-1.4,1.4-3.4,2.2"></path><circle id="XMLID_194_" class="st16" cx="32.5" cy="32.1" r="16.7"></circle><line id="XMLID_196_" class="st3" x1="12.8" y1="32.1" x2="19.4" y2="32.1"></line><line id="XMLID_195_" class="st3" x1="45.6" y1="32.1" x2="51.2" y2="32.1"></line><line id="XMLID_198_" class="st3" x1="32.6" y1="18.4" x2="32.6" y2="12.7"></line><line id="XMLID_197_" class="st3" x1="32.6" y1="51.3" x2="32.6" y2="46.5"></line></g><g id="XMLID_230_" class="st0"><rect id="XMLID_206_" x="17.3" y="16.4" class="st1" width="29.4" height="23.1"></rect><rect id="XMLID_201_" x="16.7" y="16.4" class="st10" width="30.5" height="2.1"></rect><rect id="XMLID_202_" x="16.7" y="16.4" class="st1" width="30.5" height="1"></rect><rect id="XMLID_200_" x="16.7" y="16.4" class="st3" width="30.5" height="2.1"></rect><rect id="XMLID_205_" x="16.7" y="37.8" class="st10" width="30.5" height="2.1"></rect><rect id="XMLID_204_" x="16.7" y="37.8" class="st1" width="30.5" height="1"></rect><rect id="XMLID_203_" x="16.7" y="37.8" class="st3" width="30.5" height="2.1"></rect><line id="XMLID_208_" class="st3" x1="32" y1="39.9" x2="32" y2="45.8"></line><line id="XMLID_209_" class="st3" x1="29" y1="46" x2="34.9" y2="46"></line><line id="XMLID_207_" class="st3" x1="19.5" y1="47.6" x2="31.6" y2="47.6"></line><line id="XMLID_210_" class="st3" x1="32.6" y1="47.6" x2="44.7" y2="47.6"></line><g id="XMLID_211_" class="st5"><path id="XMLID_217_" class="st8" d="M24.8,27.9c1.6,0,2.9-1.3,2.9-2.9h-2.9V27.9z"></path><path id="XMLID_212_" class="st22" d="M24.1,21.4c-1.6,0-2.9,1.3-2.9,2.9c0,1.6,1.3,2.9,2.9,2.9v-2.9H27 C27,22.7,25.7,21.4,24.1,21.4z"></path></g><g id="XMLID_214_" class="st5"><rect id="XMLID_215_" x="29.9" y="21.9" class="st23" width="14.3" height="0.7"></rect></g><g id="XMLID_213_" class="st5"><rect id="XMLID_216_" x="29.9" y="24.3" class="st23" width="14.3" height="0.7"></rect></g><g id="XMLID_218_" class="st5"><rect id="XMLID_219_" x="29.9" y="26.7" class="st23" width="9.9" height="0.7"></rect></g><g id="XMLID_224_" class="st5"><rect id="XMLID_225_" x="29.4" y="30.5" class="st23" width="15.3" height="0.7"></rect></g><g id="XMLID_226_" class="st5"><rect id="XMLID_227_" x="29.4" y="32.8" class="st23" width="10.9" height="0.7"></rect></g><g id="XMLID_228_" class="st5"><rect id="XMLID_229_" x="29.4" y="35" class="st23" width="4.3" height="0.7"></rect></g><g id="XMLID_223_" class="st5"><rect id="XMLID_220_" x="21.7" y="33.4" class="st23" width="1.4" height="2.4"></rect><rect id="XMLID_221_" x="23.7" y="31.9" class="st23" width="1.4" height="3.8"></rect><rect id="XMLID_222_" x="25.6" y="30.5" class="st6" width="1.4" height="5.3"></rect></g></g><g id="XMLID_283_" class="st0"><rect id="XMLID_231_" x="11.5" y="16" class="st1" width="38.5" height="21"></rect><rect id="XMLID_233_" x="11.5" y="36.9" class="st15" width="38.5" height="3.7"></rect><polygon id="XMLID_232_" class="st15" points="33.1,26.4 27.9,23.4 27.9,29.5 33.1,26.4 27.9,23.4 27.9,29.5"></polygon><line id="XMLID_235_" class="st3" x1="11.5" y1="36.9" x2="50" y2="36.9"></line><line id="XMLID_234_" class="st3" x1="11.5" y1="16.5" x2="23.3" y2="16.5"></line><polyline id="XMLID_236_" class="st3" points="36.2,16.5 49.5,16.5 49.5,28.6"></polyline><rect id="XMLID_237_" x="14.9" y="38.4" class="st24" width="31.1" height="0.7"></rect><rect id="XMLID_238_" x="14.9" y="38.4" class="st4" width="14.2" height="0.7"></rect><rect id="XMLID_239_" x="28.8" y="37.8" class="st4" width="0.6" height="2"></rect><g id="XMLID_244_" class="st5"><line id="XMLID_282_" class="st9" x1="36.6" y1="32.8" x2="39.7" y2="35.9"></line><path id="XMLID_279_" class="st25" d="M22.1,18.4c-4.1,4.1-4.1,10.7,0,14.8c4.1,4.1,10.7,4.1,14.8,0c4.1-4.1,4.1-10.7,0-14.8 C32.9,14.3,26.2,14.3,22.1,18.4z M36.1,32.4c-3.6,3.6-9.5,3.6-13.2,0c-3.6-3.6-3.6-9.5,0-13.2c3.6-3.6,9.5-3.6,13.2,0 C39.8,22.8,39.8,28.7,36.1,32.4z"></path><path id="XMLID_278_" class="st9" d="M24.4,20.7c2.8-2.8,7.4-2.8,10.2,0"></path><path id="XMLID_277_" class="st26" d="M37.3,36.5l11.6,11.6c0.8,0.8,2.1,0.8,2.9,0L38.8,35L37.3,36.5z"></path><path id="XMLID_276_" class="st27" d="M38.8,35l13.1,13.1c0.8-0.8,0.8-2.1,0-2.9L40.2,33.5L38.8,35z"></path><line id="XMLID_275_" class="st9" x1="39.3" y1="38.6" x2="42.4" y2="35.6"></line><line id="XMLID_274_" class="st9" x1="40.6" y1="39.9" x2="43.7" y2="36.9"></line></g></g><g id="XMLID_320_" class="st0"><polygon id="XMLID_344_" class="st15" points="52.3,28 50.6,31.9 52.3,35.9 39.9,35.9 39.9,28"></polygon><polygon id="XMLID_343_" class="st21" points="52.3,28 50.6,31.9 52.3,35.9 39.9,35.9 39.9,28"></polygon><polygon id="XMLID_346_" class="st15" points="11.7,28 13.4,31.9 11.7,35.9 24.1,35.9 24.1,28"></polygon><polygon id="XMLID_345_" class="st21" points="11.7,28 13.4,31.9 11.7,35.9 24.1,35.9 24.1,28"></polygon><path id="XMLID_315_" class="st11" d="M43.5,33.4L42,35.6c-0.2,0.3-0.3,0.6-0.4,1l-0.5,2.6c-0.2,1-1,1.9-2.1,2.1l-2.6,0.5 c-0.3,0.1-0.7,0.2-1,0.4l-2.2,1.5c-0.9,0.6-2,0.6-2.9,0l-2.2-1.5c-0.3-0.2-0.6-0.3-1-0.4l-2.6-0.5c-1-0.2-1.9-1-2.1-2.1l-0.5-2.6 c-0.1-0.3-0.2-0.7-0.4-1L20,33.4c-0.6-0.9-0.6-2,0-2.9l1.5-2.2c0.2-0.3,0.3-0.6,0.4-1l0.5-2.6c0.2-1,1-1.9,2.1-2.1l2.6-0.5 c0.3-0.1,0.7-0.2,1-0.4l2.2-1.5c0.9-0.6,2-0.6,2.9,0l2.2,1.5c0.3,0.2,0.6,0.3,1,0.4l2.6,0.5c1,0.2,1.9,1,2.1,2.1l0.5,2.6 c0.1,0.3,0.2,0.7,0.4,1l1.5,2.2C44.1,31.3,44.1,32.5,43.5,33.4z"></path><circle id="XMLID_319_" class="st28" cx="31.8" cy="31.9" r="8.3"></circle><path id="XMLID_342_" class="st29" d="M35.3,37.6l-3.4-1.7c-0.1,0-0.1,0-0.2,0l-3.4,1.8c-0.2,0.1-0.4,0-0.3-0.2l0.6-3.8 c0-0.1,0-0.1-0.1-0.2l-2.8-2.6c-0.1-0.1-0.1-0.4,0.1-0.4l3.8-0.6c0.1,0,0.1-0.1,0.2-0.1l1.7-3.5c0.1-0.2,0.3-0.2,0.4,0l1.7,3.4 c0,0.1,0.1,0.1,0.2,0.1l3.8,0.5c0.2,0,0.3,0.3,0.1,0.4L35,33.4C35,33.4,35,33.5,35,33.6l0.7,3.8C35.7,37.5,35.5,37.7,35.3,37.6z"></path><line id="XMLID_341_" class="st3" x1="31.8" y1="16" x2="31.8" y2="18.4"></line><line id="XMLID_340_" class="st3" x1="35.3" y1="16.5" x2="34.7" y2="18.8"></line><line id="XMLID_339_" class="st3" x1="38.7" y1="17.9" x2="37.5" y2="19.9"></line><line id="XMLID_338_" class="st3" x1="41.5" y1="20.1" x2="39.8" y2="21.8"></line><line id="XMLID_337_" class="st3" x1="43.7" y1="22.9" x2="41.7" y2="24.1"></line><line id="XMLID_336_" class="st3" x1="45.1" y1="26.3" x2="42.8" y2="26.9"></line><line id="XMLID_325_" class="st3" x1="18.5" y1="26" x2="20.8" y2="26.7"></line><line id="XMLID_324_" class="st3" x1="19.9" y1="22.7" x2="22" y2="23.9"></line><line id="XMLID_323_" class="st3" x1="22.2" y1="19.9" x2="23.8" y2="21.6"></line><line id="XMLID_322_" class="st3" x1="25.1" y1="17.7" x2="26.2" y2="19.8"></line><line id="XMLID_321_" class="st3" x1="28.4" y1="16.4" x2="29" y2="18.7"></line><line id="XMLID_347_" class="st3" x1="31.8" y1="48" x2="31.8" y2="45.6"></line><line id="XMLID_335_" class="st3" x1="35.3" y1="47.5" x2="34.7" y2="45.2"></line><line id="XMLID_334_" class="st3" x1="38.7" y1="46.1" x2="37.5" y2="44.1"></line><line id="XMLID_333_" class="st3" x1="41.5" y1="43.9" x2="39.8" y2="42.2"></line><line id="XMLID_332_" class="st3" x1="43.7" y1="41.1" x2="41.7" y2="39.9"></line><line id="XMLID_331_" class="st3" x1="45.1" y1="37.7" x2="42.8" y2="37.1"></line><line id="XMLID_330_" class="st3" x1="18.5" y1="38" x2="20.8" y2="37.3"></line><line id="XMLID_329_" class="st3" x1="19.9" y1="41.3" x2="22" y2="40.1"></line><line id="XMLID_328_" class="st3" x1="22.2" y1="44.1" x2="23.8" y2="42.4"></line><line id="XMLID_327_" class="st3" x1="25.1" y1="46.3" x2="26.2" y2="44.2"></line><line id="XMLID_326_" class="st3" x1="28.4" y1="47.6" x2="29" y2="45.3"></line></g><g id="XMLID_357_" class="st0"><rect id="XMLID_538_" x="19.7" y="21.9" class="st1" width="31.1" height="23.8"></rect><rect id="XMLID_537_" x="20.1" y="18.8" class="st15" width="30.3" height="4.9"></rect><polyline id="XMLID_353_" class="st3" points="20.1,23.7 20.1,18.8 50.4,18.8"></polyline><circle id="XMLID_529_" class="st4" cx="42.3" cy="21.3" r="0.7"></circle><circle id="XMLID_528_" class="st4" cx="44.5" cy="21.3" r="0.7"></circle><circle id="XMLID_527_" class="st4" cx="46.7" cy="21.3" r="0.7"></circle><line id="XMLID_562_" class="st3" x1="35" y1="33.7" x2="35" y2="37.6"></line><line id="XMLID_568_" class="st3" x1="43.4" y1="37.1" x2="40.7" y2="39.9"></line><line id="XMLID_570_" class="st3" x1="42.1" y1="36.4" x2="44.1" y2="38.3"></line><line id="XMLID_571_" class="st3" x1="28.1" y1="36.4" x2="26.1" y2="38.3"></line><line id="XMLID_569_" class="st3" x1="26.9" y1="37.1" x2="29.6" y2="39.9"></line><path id="XMLID_546_" class="st4" d="M44.9,45.6H25c0-5.5,4.5-9.9,9.9-9.9C40.4,35.7,45.7,40.2,44.9,45.6z"></path><path id="XMLID_560_" class="st11" d="M34.9,35.7c5.5,0,9.9,4.5,9.9,9.9h-9.9V35.7z"></path><path id="XMLID_561_" class="st3" d="M44.9,45.6c0-5.5-4.5-9.9-9.9-9.9h-0.3"></path><path id="XMLID_352_" class="st3" d="M25.4,45.6c0-5.5,4.5-9.9,9.9-9.9h0.3"></path><circle id="XMLID_547_" class="st29" cx="34.9" cy="37.4" r="0.4"></circle><circle id="XMLID_548_" class="st29" cx="39" cy="38.5" r="0.4"></circle><circle id="XMLID_549_" class="st29" cx="42" cy="41.5" r="0.4"></circle><path id="XMLID_550_" class="st29" d="M42.7,45.6c0-0.2,0.2-0.4,0.4-0.4c0.2,0,0.4,0.2,0.4,0.4L42.7,45.6z"></path><path id="XMLID_350_" class="st29" d="M26.9,45.6c0-0.2,0.2-0.4,0.4-0.4c0.2,0,0.4,0.2,0.4,0.4L26.9,45.6z"></path><circle id="XMLID_557_" class="st29" cx="27.8" cy="41.6" r="0.4"></circle><circle id="XMLID_558_" class="st29" cx="30.8" cy="38.5" r="0.4"></circle><rect id="XMLID_563_" x="33.3" y="32.7" class="st19" width="3.3" height="1.3"></rect><rect id="XMLID_559_" x="33.3" y="32.7" class="st3" width="3.3" height="1.3"></rect><path id="XMLID_565_" class="st4" d="M35.9,45.6h-2c0-0.6,0.5-1,1-1C35.5,44.6,35.9,45,35.9,45.6z"></path><path id="XMLID_348_" class="st3" d="M33.9,45.6c0-0.6,0.5-1,1-1c0.6,0,1,0.5,1,1"></path><line id="XMLID_567_" class="st3" x1="35.9" y1="45.2" x2="40.9" y2="45.2"></line><line id="XMLID_349_" class="st3" x1="20.2" y1="32.7" x2="20.2" y2="45.7"></line><line id="XMLID_355_" class="st3" x1="33.5" y1="23.7" x2="50.8" y2="23.7"></line><line id="XMLID_354_" class="st3" x1="13.2" y1="27.2" x2="34.5" y2="27.2"></line><line id="XMLID_356_" class="st3" x1="23" y1="30.1" x2="34.5" y2="30.1"></line><line id="XMLID_351_" class="st3" x1="50.5" y1="18.3" x2="50.5" y2="45.7"></line></g><g id="XMLID_367_" class="st0"><g id="XMLID_596_" class="st5"><path id="XMLID_636_" class="st12" d="M40.4,48.4H22c-0.6,0-1-0.5-1-1V16.6c0-0.5,0.4-1,1-1h18.5c0.5,0,1,0.5,1,1v30.8 C41.4,47.9,41,48.4,40.4,48.4z"></path><path id="XMLID_289_" class="st9" d="M41.4,38.1v9.5c0,0.4-0.4,0.8-0.8,0.8H21.8c-0.4,0-0.8-0.4-0.8-0.8V31.9"></path><path id="XMLID_285_" class="st9" d="M21,19.6v-3.1c0-0.4,0.4-0.8,0.8-0.8h18.9c0.4,0,0.8,0.4,0.8,0.8v9.9"></path><line id="XMLID_637_" class="st9" x1="28.6" y1="17.8" x2="33.8" y2="17.8"></line><rect id="XMLID_638_" x="22.5" y="19.6" class="st30" width="17.3" height="24.9"></rect><polygon id="XMLID_287_" class="st22" points="39.1,19.6 39.1,43.7 22.5,43.7 22.5,44.5 39.9,44.5 39.9,19.6"></polygon></g><path id="XMLID_284_" class="st11" d="M33.2,27.9v9.3h1.2v1.6v3c0,0.2,0.2,0.2,0.3,0.1l3.9-4.7h11.8v-9.3H33.2z"></path><path id="XMLID_288_" class="st15" d="M30.5,20.6v10.2h-1.3v1.7v3.3c0,0.2-0.2,0.3-0.3,0.1l-4.3-5.1H11.7V20.6H30.5z"></path><line id="XMLID_290_" class="st3" x1="12.9" y1="22.9" x2="27.3" y2="22.9"></line><line id="XMLID_286_" class="st3" x1="16.7" y1="25.6" x2="27.3" y2="25.6"></line><line id="XMLID_291_" class="st3" x1="20.5" y1="28.4" x2="27.3" y2="28.4"></line><line id="XMLID_295_" class="st3" x1="48.9" y1="29.9" x2="35.1" y2="29.9"></line><line id="XMLID_294_" class="st3" x1="45.2" y1="32.7" x2="35.1" y2="32.7"></line><line id="XMLID_293_" class="st3" x1="41.6" y1="35.4" x2="35.1" y2="35.4"></line><circle id="XMLID_1452_" class="st3" cx="45.7" cy="24.4" r="1"></circle><circle id="XMLID_360_" class="st3" cx="17.7" cy="35.4" r="1"></circle><circle id="XMLID_292_" class="st3" cx="45.7" cy="17.8" r="1.3"></circle><circle id="XMLID_361_" class="st3" cx="11.7" cy="38.1" r="1.3"></circle><circle id="XMLID_359_" class="st3" cx="52.1" cy="23.3" r="1.6"></circle><circle id="XMLID_362_" class="st3" cx="16.1" cy="45.3" r="1.6"></circle></g><g id="XMLID_316_" class="st0"><path id="XMLID_299_" class="st15" d="M47.1,26.2h-9.3c-3,0-5.4,2.4-5.4,5.4v0.8c0,3,2.4,5.4,5.4,5.4h9.3c3,0,5.4-2.4,5.4-5.4v-0.8 C52.5,28.6,50.1,26.2,47.1,26.2z M49.1,32.4c0,1-0.9,1.9-1.9,1.9h-9.3c-1,0-1.9-0.9-1.9-1.9v-0.8c0-1,0.9-1.9,1.9-1.9h9.3 c1,0,1.9,0.9,1.9,1.9V32.4z"></path><path id="XMLID_308_" class="st11" d="M26.2,26.2h-9.3c-3,0-5.4,2.4-5.4,5.4v0.8c0,3,2.4,5.4,5.4,5.4h9.3c3,0,5.4-2.4,5.4-5.4v-0.8 C31.6,28.6,29.1,26.2,26.2,26.2z M28.1,32.4c0,1-0.9,1.9-1.9,1.9h-9.3c-1,0-1.9-0.9-1.9-1.9v-0.8c0-1,0.9-1.9,1.9-1.9h9.3 c1,0,1.9,0.9,1.9,1.9V32.4z"></path><path id="XMLID_303_" class="st1" d="M41.2,33.9H24.3c-0.7,0-1.3-0.6-1.3-1.3v-1c0-0.7,0.6-1.3,1.3-1.3h16.8c0.7,0,1.3,0.6,1.3,1.3 v1C42.5,33.3,41.9,33.9,41.2,33.9z"></path><path id="XMLID_314_" class="st3" d="M41.2,33.9H24.3c-0.7,0-1.3-0.6-1.3-1.3v-1c0-0.7,0.6-1.3,1.3-1.3h16.8c0.7,0,1.3,0.6,1.3,1.3 v1C42.5,33.3,41.9,33.9,41.2,33.9z"></path><circle id="XMLID_297_" class="st19" cx="32.2" cy="31.9" r="5.4"></circle><circle id="XMLID_298_" class="st1" cx="32.2" cy="31.9" r="3.4"></circle><circle id="XMLID_296_" class="st3" cx="32.2" cy="31.9" r="5.4"></circle><g id="XMLID_302_" class="st5"><path id="XMLID_309_" class="st17" d="M31.8,34.1v-1.7h-1.7v-0.8h1.7v-1.7h0.8v1.7h1.7v0.8h-1.7v1.7H31.8z"></path></g><line id="XMLID_318_" class="st3" x1="32.2" y1="17.7" x2="32.2" y2="23.1"></line><line id="XMLID_311_" class="st3" x1="29" y1="20" x2="29.9" y2="23.4"></line><line id="XMLID_312_" class="st3" x1="26.9" y1="22.7" x2="27.8" y2="24.3"></line><line id="XMLID_313_" class="st3" x1="25" y1="24.7" x2="26" y2="25.7"></line><line id="XMLID_392_" class="st3" x1="39.4" y1="24.6" x2="38.4" y2="25.7"></line><line id="XMLID_393_" class="st3" x1="37.5" y1="22.7" x2="36.5" y2="24.3"></line><line id="XMLID_394_" class="st3" x1="35.3" y1="20" x2="34.4" y2="23.4"></line><line id="XMLID_379_" class="st3" x1="32.2" y1="46.3" x2="32.2" y2="40.9"></line><line id="XMLID_378_" class="st3" x1="29" y1="44" x2="29.9" y2="40.6"></line><line id="XMLID_377_" class="st3" x1="26.9" y1="41.3" x2="27.8" y2="39.7"></line><line id="XMLID_376_" class="st3" x1="25" y1="39.3" x2="26" y2="38.3"></line><line id="XMLID_375_" class="st3" x1="39.4" y1="39.4" x2="38.4" y2="38.3"></line><line id="XMLID_374_" class="st3" x1="37.5" y1="41.3" x2="36.5" y2="39.7"></line><line id="XMLID_317_" class="st3" x1="35.3" y1="44" x2="34.4" y2="40.6"></line></g><g id="XMLID_587_" class="st0"><line id="XMLID_388_" class="st16" x1="18.3" y1="45.1" x2="45.4" y2="18"></line><line id="XMLID_390_" class="st16" x1="45.4" y1="45.1" x2="18.3" y2="18"></line><line id="XMLID_400_" class="st16" x1="31.9" y1="47.3" x2="31.9" y2="16.6"></line><path id="XMLID_404_" class="st16" d="M13.3,31.6l36.3,0"></path><g id="XMLID_384_" class="st5"><rect id="XMLID_913_" x="19.3" y="26.2" class="st6" width="26" height="11.7"></rect><circle id="XMLID_923_" class="st31" cx="32.2" cy="32.1" r="4.1"></circle><line id="XMLID_925_" class="st9" x1="22" y1="32.1" x2="26.5" y2="32.1"></line><line id="XMLID_924_" class="st9" x1="37.9" y1="32.1" x2="42.3" y2="32.1"></line><g id="XMLID_927_"><path id="XMLID_928_" class="st17" d="M32.1,34.5V34c-0.5-0.1-1-0.3-1.4-0.6l0.4-0.5c0.3,0.3,0.6,0.4,1,0.5v-1.1 c-0.4-0.1-0.7-0.2-0.9-0.4c-0.2-0.2-0.3-0.4-0.3-0.7c0-0.3,0.1-0.6,0.3-0.8c0.2-0.2,0.5-0.3,0.9-0.3v-0.3h0.4V30 c0.4,0,0.8,0.2,1.2,0.4L33.2,31c-0.3-0.2-0.5-0.3-0.8-0.3v1.1h0c0.4,0.1,0.8,0.2,1,0.4c0.2,0.2,0.3,0.4,0.3,0.8 c0,0.3-0.1,0.6-0.4,0.8c-0.2,0.2-0.5,0.3-0.9,0.3v0.4H32.1z M31.7,30.8c-0.1,0.1-0.1,0.2-0.1,0.3c0,0.1,0,0.2,0.1,0.3 c0.1,0.1,0.2,0.1,0.4,0.2v-1C31.9,30.6,31.8,30.7,31.7,30.8z M32.9,33.3c0.1-0.1,0.2-0.2,0.2-0.3c0-0.1,0-0.2-0.1-0.3 c-0.1-0.1-0.2-0.2-0.5-0.2v1C32.6,33.4,32.8,33.4,32.9,33.3z"></path></g></g><g id="XMLID_380_" class="st5"><circle id="XMLID_398_" class="st8" cx="45" cy="18.3" r="2.8"></circle><g id="XMLID_381_"><g id="XMLID_499_"><path id="XMLID_500_" class="st17" d="M44.8,19.6v-0.2c-0.3,0-0.5-0.2-0.7-0.4l0.3-0.4c0.2,0.1,0.3,0.2,0.4,0.3v-0.5 c-0.2-0.1-0.4-0.1-0.5-0.2c-0.1-0.1-0.2-0.2-0.2-0.4c0-0.2,0.1-0.3,0.2-0.4c0.1-0.1,0.3-0.2,0.5-0.2V17h0.3v0.2 c0.2,0,0.4,0.1,0.6,0.3l-0.3,0.4c-0.1-0.1-0.3-0.2-0.4-0.2v0.4c0.2,0.1,0.4,0.1,0.5,0.2c0.1,0.1,0.2,0.2,0.2,0.4 c0,0.2-0.1,0.3-0.2,0.4c-0.1,0.1-0.3,0.2-0.5,0.2v0.2H44.8z M44.8,17.6c-0.1,0-0.1,0.1-0.1,0.2c0,0.1,0,0.1,0.1,0.2V17.6z M45.3,18.7c0,0,0-0.1,0-0.1c0,0-0.1-0.1-0.1-0.1v0.4C45.3,18.9,45.3,18.8,45.3,18.7z"></path></g></g></g><g id="XMLID_385_" class="st5"><circle id="XMLID_412_" class="st8" cx="31.8" cy="18.3" r="2.8"></circle><g id="XMLID_401_"><g id="XMLID_513_"><path id="XMLID_514_" class="st17" d="M31.7,19.6v-0.2c-0.3,0-0.5-0.2-0.7-0.4l0.3-0.4c0.2,0.1,0.3,0.2,0.4,0.3v-0.5 c-0.2-0.1-0.4-0.1-0.5-0.2c-0.1-0.1-0.2-0.2-0.2-0.4c0-0.2,0.1-0.3,0.2-0.4c0.1-0.1,0.3-0.2,0.5-0.2V17H32v0.2 c0.2,0,0.4,0.1,0.6,0.3l-0.3,0.4c-0.1-0.1-0.3-0.2-0.4-0.2v0.4c0.2,0.1,0.4,0.1,0.5,0.2c0.1,0.1,0.2,0.2,0.2,0.4 c0,0.2-0.1,0.3-0.2,0.4c-0.1,0.1-0.3,0.2-0.5,0.2v0.2H31.7z M31.7,17.6c-0.1,0-0.1,0.1-0.1,0.2c0,0.1,0,0.1,0.1,0.2V17.6z M32.2,18.7c0,0,0-0.1,0-0.1c0,0-0.1-0.1-0.1-0.1v0.4C32.1,18.9,32.2,18.8,32.2,18.7z"></path></g></g></g><g id="XMLID_413_" class="st5"><circle id="XMLID_425_" class="st8" cx="18.7" cy="18.3" r="2.8"></circle><g id="XMLID_414_"><g id="XMLID_518_"><path id="XMLID_519_" class="st17" d="M18.6,19.6v-0.2c-0.3,0-0.5-0.2-0.7-0.4l0.3-0.4c0.2,0.1,0.3,0.2,0.4,0.3v-0.5 c-0.2-0.1-0.4-0.1-0.5-0.2C18,18.1,18,18,18,17.8c0-0.2,0.1-0.3,0.2-0.4c0.1-0.1,0.3-0.2,0.5-0.2V17h0.3v0.2 c0.2,0,0.4,0.1,0.6,0.3l-0.3,0.4c-0.1-0.1-0.3-0.2-0.4-0.2v0.4c0.2,0.1,0.4,0.1,0.5,0.2c0.1,0.1,0.2,0.2,0.2,0.4 c0,0.2-0.1,0.3-0.2,0.4c-0.1,0.1-0.3,0.2-0.5,0.2v0.2H18.6z M18.6,17.6c-0.1,0-0.1,0.1-0.1,0.2c0,0.1,0,0.1,0.1,0.2V17.6z M19.1,18.7c0,0,0-0.1,0-0.1c0,0-0.1-0.1-0.1-0.1v0.4C19,18.9,19.1,18.8,19.1,18.7z"></path></g></g></g><g id="XMLID_441_" class="st5"><circle id="XMLID_471_" class="st8" cx="45" cy="45.7" r="2.8"></circle><g id="XMLID_442_"><g id="XMLID_523_"><path id="XMLID_524_" class="st17" d="M44.8,47v-0.2c-0.3,0-0.5-0.2-0.7-0.4l0.3-0.4c0.2,0.1,0.3,0.2,0.4,0.3v-0.5 c-0.2-0.1-0.4-0.1-0.5-0.2c-0.1-0.1-0.2-0.2-0.2-0.4c0-0.2,0.1-0.3,0.2-0.4c0.1-0.1,0.3-0.2,0.5-0.2v-0.2h0.3v0.2 c0.2,0,0.4,0.1,0.6,0.3l-0.3,0.4c-0.1-0.1-0.3-0.2-0.4-0.2v0.4c0.2,0.1,0.4,0.1,0.5,0.2c0.1,0.1,0.2,0.2,0.2,0.4 c0,0.2-0.1,0.3-0.2,0.4c-0.1,0.1-0.3,0.2-0.5,0.2V47H44.8z M44.8,45c-0.1,0-0.1,0.1-0.1,0.2c0,0.1,0,0.1,0.1,0.2V45z M45.3,46.1 c0,0,0-0.1,0-0.1c0,0-0.1-0.1-0.1-0.1v0.4C45.3,46.3,45.3,46.2,45.3,46.1z"></path></g></g></g><g id="XMLID_472_" class="st5"><circle id="XMLID_485_" class="st8" cx="51.6" cy="31.6" r="2.8"></circle><g id="XMLID_473_"><g id="XMLID_531_"><path id="XMLID_532_" class="st17" d="M51.4,32.9v-0.2c-0.3,0-0.5-0.2-0.7-0.4l0.3-0.4c0.2,0.1,0.3,0.2,0.4,0.3v-0.5 c-0.2-0.1-0.4-0.1-0.5-0.2c-0.1-0.1-0.2-0.2-0.2-0.4c0-0.2,0.1-0.3,0.2-0.4c0.1-0.1,0.3-0.2,0.5-0.2v-0.2h0.3v0.2 c0.2,0,0.4,0.1,0.6,0.3l-0.3,0.4c-0.1-0.1-0.3-0.2-0.4-0.2v0.4c0.2,0.1,0.4,0.1,0.5,0.2s0.2,0.2,0.2,0.4c0,0.2-0.1,0.3-0.2,0.4 c-0.1,0.1-0.3,0.2-0.5,0.2v0.2H51.4z M51.4,30.9c-0.1,0-0.1,0.1-0.1,0.2c0,0.1,0,0.1,0.1,0.2V30.9z M51.9,32c0,0,0-0.1,0-0.1 c0,0-0.1-0.1-0.1-0.1v0.4C51.9,32.2,51.9,32.1,51.9,32z"></path></g></g></g><g id="XMLID_486_" class="st5"><circle id="XMLID_510_" class="st8" cx="12.4" cy="31.6" r="2.8"></circle><g id="XMLID_487_"><g id="XMLID_536_"><path id="XMLID_539_" class="st17" d="M12.3,32.9v-0.2c-0.3,0-0.5-0.2-0.7-0.4l0.3-0.4c0.2,0.1,0.3,0.2,0.4,0.3v-0.5 c-0.2-0.1-0.4-0.1-0.5-0.2c-0.1-0.1-0.2-0.2-0.2-0.4c0-0.2,0.1-0.3,0.2-0.4c0.1-0.1,0.3-0.2,0.5-0.2v-0.2h0.3v0.2 c0.2,0,0.4,0.1,0.6,0.3L13,31.1c-0.1-0.1-0.3-0.2-0.4-0.2v0.4c0.2,0.1,0.4,0.1,0.5,0.2c0.1,0.1,0.2,0.2,0.2,0.4 c0,0.2-0.1,0.3-0.2,0.4c-0.1,0.1-0.3,0.2-0.5,0.2v0.2H12.3z M12.3,30.9c-0.1,0-0.1,0.1-0.1,0.2c0,0.1,0,0.1,0.1,0.2V30.9z M12.8,32c0,0,0-0.1,0-0.1c0,0-0.1-0.1-0.1-0.1v0.4C12.7,32.2,12.8,32.1,12.8,32z"></path></g></g></g><g id="XMLID_427_" class="st5"><circle id="XMLID_440_" class="st8" cx="31.8" cy="45.7" r="2.8"></circle><g id="XMLID_428_"><g id="XMLID_543_"><path id="XMLID_544_" class="st17" d="M31.7,47v-0.2c-0.3,0-0.5-0.2-0.7-0.4l0.3-0.4c0.2,0.1,0.3,0.2,0.4,0.3v-0.5 c-0.2-0.1-0.4-0.1-0.5-0.2c-0.1-0.1-0.2-0.2-0.2-0.4c0-0.2,0.1-0.3,0.2-0.4c0.1-0.1,0.3-0.2,0.5-0.2v-0.2H32v0.2 c0.2,0,0.4,0.1,0.6,0.3l-0.3,0.4C32.3,45.1,32.2,45,32,45v0.4c0.2,0.1,0.4,0.1,0.5,0.2c0.1,0.1,0.2,0.2,0.2,0.4 c0,0.2-0.1,0.3-0.2,0.4c-0.1,0.1-0.3,0.2-0.5,0.2V47H31.7z M31.7,45c-0.1,0-0.1,0.1-0.1,0.2c0,0.1,0,0.1,0.1,0.2V45z M32.2,46.1 c0,0,0-0.1,0-0.1c0,0-0.1-0.1-0.1-0.1v0.4C32.1,46.3,32.2,46.2,32.2,46.1z"></path></g></g></g><g id="XMLID_402_" class="st5"><circle id="XMLID_426_" class="st8" cx="18.7" cy="45.7" r="2.8"></circle><g id="XMLID_403_"><g id="XMLID_553_"><path id="XMLID_554_" class="st17" d="M18.6,47v-0.2c-0.3,0-0.5-0.2-0.7-0.4l0.3-0.4c0.2,0.1,0.3,0.2,0.4,0.3v-0.5 c-0.2-0.1-0.4-0.1-0.5-0.2C18,45.5,18,45.4,18,45.2c0-0.2,0.1-0.3,0.2-0.4c0.1-0.1,0.3-0.2,0.5-0.2v-0.2h0.3v0.2 c0.2,0,0.4,0.1,0.6,0.3l-0.3,0.4C19.2,45.1,19,45,18.9,45v0.4c0.2,0.1,0.4,0.1,0.5,0.2c0.1,0.1,0.2,0.2,0.2,0.4 c0,0.2-0.1,0.3-0.2,0.4c-0.1,0.1-0.3,0.2-0.5,0.2V47H18.6z M18.6,45c-0.1,0-0.1,0.1-0.1,0.2c0,0.1,0,0.1,0.1,0.2V45z M19.1,46.1 c0,0,0-0.1,0-0.1c0,0-0.1-0.1-0.1-0.1v0.4C19,46.3,19.1,46.2,19.1,46.1z"></path></g></g></g></g><g id="XMLID_465_" class="st0"><g id="XMLID_382_" class="st5"><polygon id="XMLID_450_" class="st6" points="27.9,17.2 24,21.1 24,37.8 38,37.8 38,17.2"></polygon><g id="XMLID_443_"><rect id="XMLID_446_" x="26.1" y="20.2" class="st20" width="10.3" height="1"></rect></g><g id="XMLID_435_"><rect id="XMLID_445_" x="26.1" y="22.2" class="st20" width="10.3" height="1"></rect></g><g id="XMLID_434_"><rect id="XMLID_431_" x="26.1" y="24.3" class="st20" width="10.3" height="1"></rect></g><g id="XMLID_433_"><rect id="XMLID_429_" x="26.1" y="26.4" class="st20" width="10.3" height="1"></rect></g><polygon id="XMLID_449_" class="st32" points="27.9,21.1 27.9,17.2 24,21.1"></polygon><polyline id="XMLID_444_" class="st9" points="24,21.1 27.9,21.1 27.9,17.2"></polyline></g><path id="XMLID_405_" class="st3" d="M39.8,30.9l1.1,0.3c2.7,0.7,4.3,3.4,3.7,6.1L44,39.8c-0.7,2.7-3.4,4.4-6.1,3.7l-1.1-0.3"></path><path id="XMLID_415_" class="st19" d="M41.1,28.8H20.9l3.9,16c0.1,0.6,0.7,1,1.3,1h2l1.3,7.8h3l1.3-7.8h2.1c0.6,0,1.1-0.4,1.3-1 L41.1,28.8z"></path><g id="XMLID_613_" class="st5"><line id="XMLID_615_" class="st9" x1="38" y1="20.7" x2="41.5" y2="20.7"></line><line id="XMLID_614_" class="st9" x1="39.8" y1="22.4" x2="39.8" y2="18.9"></line></g><g id="XMLID_456_" class="st5"><line id="XMLID_458_" class="st9" x1="21.2" y1="15.5" x2="23.7" y2="15.5"></line><line id="XMLID_457_" class="st9" x1="22.5" y1="16.7" x2="22.5" y2="14.2"></line></g><g id="XMLID_448_" class="st5"><line id="XMLID_455_" class="st9" x1="29.2" y1="12" x2="32.7" y2="12"></line><line id="XMLID_454_" class="st9" x1="31" y1="13.8" x2="31" y2="10.3"></line></g><g id="XMLID_462_" class="st5"><line id="XMLID_464_" class="st9" x1="33" y1="26.4" x2="35.4" y2="26.4"></line><line id="XMLID_463_" class="st9" x1="34.2" y1="27.6" x2="34.2" y2="25.2"></line></g><g id="XMLID_459_" class="st5"><line id="XMLID_461_" class="st9" x1="22.2" y1="26.3" x2="25.7" y2="26.3"></line><line id="XMLID_460_" class="st9" x1="24" y1="28.1" x2="24" y2="24.6"></line></g><g id="XMLID_383_" class="st5"><line id="XMLID_432_" class="st9" x1="30.5" y1="17.9" x2="33" y2="17.9"></line><line id="XMLID_407_" class="st9" x1="31.8" y1="19.2" x2="31.8" y2="16.7"></line></g><polygon id="XMLID_416_" class="st1" points="38,28.8 34.2,45.9 36.4,45.9 40.2,28.8"></polygon><line id="XMLID_406_" class="st3" x1="19.2" y1="28.8" x2="42.9" y2="28.8"></line><path id="XMLID_447_" class="st3" d="M22.5,35.4l2.3,9.5c0.1,0.6,0.7,1,1.3,1h2l1.3,7.8h3l1.3-7.8h2.1c0.6,0,1.1-0.4,1.3-1 l3.9-16.1"></path></g><g id="XMLID_588_"><path id="XMLID_467_" class="st20" d="M51.1,32.7c0-1.3-1.1-2.4-2.4-2.4c-0.4,0-0.7,0.1-1,0.2c-0.4-0.9-1.3-1.6-2.3-1.8 c0-0.2,0.1-0.5,0.1-0.7c0-2.2-1.8-3.9-3.9-3.9c-1,0-1.9,0.4-2.6,1.1c-0.3-3.7-3.4-6.7-7.2-6.7c-3.3,0-6.1,2.2-6.9,5.3 c-0.3-0.1-0.6-0.1-1-0.1c-2.3,0-4.2,1.6-4.8,3.7c-0.5-0.2-1.1-0.3-1.7-0.3c-2.5,0-4.5,2-4.5,4.5c0,0.8,0.3,1.6,0.7,2.3h37.1 C50.9,33.5,51.1,33.2,51.1,32.7z"></path><path id="XMLID_469_" class="st23" d="M23.2,24.8c2.4,0,4.3,1.9,4.3,4.3c0,0.5-0.1,0.9-0.3,1.4c0.5-0.7,0.7-1.5,0.7-2.4 c0-2.4-1.9-4.3-4.3-4.3h0c-1.9,0-3.5,1.2-4,2.9C20.4,25.5,21.7,24.8,23.2,24.8z"></path><path id="XMLID_468_" class="st23" d="M44.4,29.4c-1.1,0.7-2.5,0.5-3.3-0.6c-0.2-0.2-0.3-0.5-0.3-0.7c0,0.4,0.2,0.9,0.4,1.3 c0.7,1.1,2.2,1.3,3.3,0.6l0,0c0.8-0.6,1.2-1.6,0.9-2.6C45.5,28.2,45.1,28.9,44.4,29.4z"></path><path d="M16.1,33.9 h12.2 c2,0 3.6,1.6 3.6,3.6 v4 " id="XMLID_474_" class="st33"></path><path id="XMLID_566_" class="st34" d="M47.8,33.9H35.6c-2,0-3.6-1.6-3.6-3.6v-4"></path><path id="XMLID_573_" class="st9" d="M19.1,27.5c-0.5-0.2-1.1-0.3-1.7-0.3c-2.5,0-4.5,2-4.5,4.5"></path><path id="XMLID_574_" class="st9" d="M39,25.3c-0.3-3.7-3.4-6.7-7.2-6.7c-3.3,0-6.1,2.2-6.9,5.3"></path><path id="XMLID_572_" class="st9" d="M51.1,32.7c0-1.3-1.1-2.4-2.4-2.4c-0.4,0-0.7,0.1-1,0.2c-0.4-0.9-1.3-1.6-2.3-1.8"></path><polyline id="XMLID_1428_" class="st34" points="30.6,27 31.9,25.6 33.2,27"></polyline><polyline id="XMLID_575_" class="st33" points="30.6,40.5 31.9,41.8 33.2,40.5"></polyline></g><g id="XMLID_647_" class="st0"><line id="XMLID_640_" class="st3" x1="16.5" y1="24.1" x2="29.5" y2="24.1"></line><line id="XMLID_642_" class="st3" x1="19.1" y1="26.8" x2="24.4" y2="26.8"></line><line id="XMLID_644_" class="st3" x1="13.9" y1="30" x2="18.1" y2="30"></line><line id="XMLID_643_" class="st3" x1="16.1" y1="32.5" x2="26.5" y2="32.5"></line><line id="XMLID_645_" class="st3" x1="15.7" y1="38.9" x2="22" y2="38.9"></line><line id="XMLID_641_" class="st3" x1="11.8" y1="35.4" x2="19.1" y2="35.4"></line><line id="XMLID_646_" class="st3" x1="20.7" y1="41" x2="29.5" y2="41"></line><g id="XMLID_599_" class="st5"><circle id="XMLID_631_" class="st8" cx="47.3" cy="32.7" r="4.9"></circle><circle id="XMLID_639_" class="st9" cx="47.3" cy="32.7" r="4.9"></circle><g id="XMLID_600_"><g id="XMLID_273_"><path id="XMLID_300_" class="st17" d="M47.1,34.9v-0.4c-0.5-0.1-0.9-0.3-1.3-0.6l0.5-0.6c0.3,0.2,0.5,0.4,0.8,0.5V33 c-0.4-0.1-0.7-0.2-0.8-0.4C46,32.4,46,32.2,46,31.9c0-0.3,0.1-0.6,0.3-0.8c0.2-0.2,0.5-0.3,0.8-0.4v-0.3h0.6v0.3 c0.4,0.1,0.7,0.2,1.1,0.5l-0.4,0.6c-0.2-0.2-0.4-0.3-0.6-0.3v0.8c0.4,0.1,0.7,0.2,0.9,0.4c0.2,0.2,0.3,0.4,0.3,0.7 c0,0.3-0.1,0.6-0.3,0.8c-0.2,0.2-0.5,0.3-0.8,0.4v0.4H47.1z M47.1,31.5c-0.2,0.1-0.2,0.2-0.2,0.3c0,0.1,0.1,0.3,0.2,0.3V31.5z M47.9,33.5c0-0.1,0-0.1-0.1-0.2c0-0.1-0.1-0.1-0.2-0.1v0.7C47.8,33.8,47.9,33.6,47.9,33.5z"></path></g></g></g><path id="XMLID_1431_" class="st15" d="M25.9,33.2c0,2.6-2.1,4.7-4.7,4.7c-2.6,0,0-2.1,0-4.7c0-2.6-2.6-4.7,0-4.7 C23.8,28.5,25.9,30.6,25.9,33.2z"></path><path id="XMLID_1429_" class="st15" d="M35.7,25.3c0,2.6-2.1,4.7-4.7,4.7c-2.6,0,0-2.1,0-4.7c0-2.6-2.6-4.7,0-4.7 C33.6,20.6,35.7,22.7,35.7,25.3z"></path><path id="XMLID_1427_" class="st15" d="M33.3,42.1c-0.8,1.9-3.1,2.8-5,1.9c-1.9-0.8,0.7-1.5,1.5-3.4c0.8-1.9-0.4-4.3,1.5-3.4 C33.3,38,34.1,40.2,33.3,42.1z"></path><path id="XMLID_1402_" class="st2" d="M36.1,32.5l5,3.9c-0.5,1.1-1.2,2.1-2,3c-0.9,0.9-1.9,1.5-3,2c-1.1,0.5-2.4,0.7-3.7,0.7 c-1.3,0-2.5-0.3-3.7-0.7c-1.1-0.5-2.1-1.2-3-2c-0.9-0.9-1.5-1.9-2-3c-0.5-1.1-0.7-2.4-0.7-3.7c0-1.3,0.3-2.5,0.7-3.7 c0.5-1.1,1.2-2.1,2-3c0.9-0.9,1.9-1.5,3-2c1.1-0.5,2.4-0.7,3.7-0.7c1.3,0,2.5,0.3,3.7,0.7c1.1,0.5,2.1,1.2,3,2c0.9,0.9,1.5,1.9,2,3 L36.1,32.5z"></path><path id="XMLID_1432_" class="st15" d="M39.4,38.5c-0.9,0.9-1.9,1.5-3,2c-1.1,0.5-2.4,0.7-3.7,0.7c-1.3,0-2.5-0.3-3.7-0.7 c-1.1-0.5-2.1-1.2-3-2c-0.9-0.9-1.5-1.9-2-3c-0.5-1.1-0.7-2.4-0.7-3.7c0-1.2,0.2-2.3,0.6-3.3c-0.1,0.2-0.2,0.4-0.3,0.6 c-0.5,1.1-0.7,2.4-0.7,3.7c0,1.3,0.3,2.5,0.7,3.7c0.5,1.1,1.2,2.1,2,3c0.9,0.9,1.9,1.5,3,2c1.1,0.5,2.4,0.7,3.7,0.7 c1.3,0,2.5-0.3,3.7-0.7c1.1-0.5,2.1-1.2,3-2c0.9-0.9,1.5-1.9,2-3l0,0C40.6,37.2,40,37.9,39.4,38.5z"></path><circle id="XMLID_1403_" class="st29" cx="35.7" cy="28.5" r="0.6"></circle><path id="XMLID_604_" class="st3" d="M33.7,27.3c-1.2,3.5-1.2,7.2,0,10.7"></path><path id="XMLID_603_" class="st3" d="M29.9,28.6c-0.9,2.6-0.9,5.4,0,8"></path><path id="XMLID_602_" class="st3" d="M26,29.9c-0.6,1.8-0.6,3.7,0,5.5"></path><circle id="XMLID_601_" class="st11" cx="39.7" cy="22.4" r="1.3"></circle><circle id="XMLID_622_" class="st11" cx="42.4" cy="40.2" r="0.8"></circle><circle id="XMLID_623_" class="st11" cx="46.9" cy="16.9" r="1.8"></circle><circle id="XMLID_635_" class="st11" cx="15.4" cy="41.6" r="1"></circle><circle id="XMLID_634_" class="st11" cx="25.8" cy="17.8" r="0.9"></circle><circle id="XMLID_632_" class="st11" cx="50.3" cy="44.3" r="1.8"></circle><circle id="XMLID_633_" class="st11" cx="31.5" cy="47.5" r="1.4"></circle></g><g id="XMLID_766_" class="st0"><g id="XMLID_690_" class="st5"><path id="XMLID_649_" class="st9" d="M17,49.6c0-7.9,6.4-14.3,14.3-14.3c7.9,0,14.3,6.4,14.3,14.3"></path><path id="XMLID_698_" class="st9" d="M36.4,36.2c2.2,3.5,3.5,8.2,3.5,13.4"></path><path id="XMLID_697_" class="st9" d="M26.7,36.2c-2.2,3.5-3.5,8.2-3.5,13.4"></path><line id="XMLID_694_" class="st9" x1="31.3" y1="35.3" x2="31.3" y2="49.5"></line><line id="XMLID_692_" class="st9" x1="19.2" y1="42.8" x2="43.9" y2="42.8"></line></g><g id="XMLID_691_" class="st5"><path id="XMLID_757_" class="st30" d="M28.6,31c0-0.5-0.4-1-1-1c-0.1,0-0.3,0-0.4,0.1c-0.2-0.4-0.5-0.6-0.9-0.7 c0-0.1,0.1-0.2,0.1-0.3c0-0.9-0.7-1.6-1.6-1.6c-0.4,0-0.8,0.2-1.1,0.4c-0.1-1.5-1.4-2.7-2.9-2.7c-1.3,0-2.5,0.9-2.8,2.1 c-0.1,0-0.3,0-0.4,0c-0.9,0-1.7,0.6-1.9,1.5c-0.2-0.1-0.4-0.1-0.7-0.1c-1,0-1.8,0.8-1.8,1.8c0,0.3,0.1,0.6,0.3,0.9h15 C28.6,31.3,28.6,31.2,28.6,31z"></path><path id="XMLID_756_" class="st35" d="M17.3,27.8c1,0,1.7,0.8,1.7,1.7c0,0.2,0,0.4-0.1,0.6c0.2-0.3,0.3-0.6,0.3-1 c0-1-0.8-1.7-1.7-1.7l0,0c-0.8,0-1.4,0.5-1.6,1.2C16.2,28.1,16.7,27.8,17.3,27.8z"></path><path id="XMLID_755_" class="st35" d="M25.9,29.6c-0.4,0.3-1,0.2-1.3-0.2c-0.1-0.1-0.1-0.2-0.1-0.3c0,0.2,0.1,0.4,0.2,0.5 c0.3,0.4,0.9,0.5,1.3,0.2l0,0c0.3-0.2,0.5-0.7,0.4-1C26.4,29.1,26.2,29.5,25.9,29.6z"></path></g><line id="XMLID_732_" class="st3" x1="51.6" y1="29.5" x2="40.5" y2="29.5"></line><line id="XMLID_764_" class="st3" x1="44.9" y1="27.1" x2="34.9" y2="27.1"></line><line id="XMLID_762_" class="st3" x1="24.9" y1="19.4" x2="19" y2="19.4"></line><line id="XMLID_765_" class="st3" x1="27" y1="16.7" x2="16.1" y2="16.7"></line><line id="XMLID_763_" class="st3" x1="12.4" y1="19.4" x2="18" y2="19.4"></line><path id="XMLID_707_" class="st11" d="M31.2,14.7c-4.8,0-8.8,3.9-8.8,8.8s8.8,14.7,8.8,14.7S40,28.3,40,23.5S36.1,14.7,31.2,14.7z M31.2,27.7c-2.8,0-5.1-2.3-5.1-5.1s2.3-5.1,5.1-5.1s5.1,2.3,5.1,5.1S34,27.7,31.2,27.7z"></path><g id="XMLID_772_" class="st5"><path id="XMLID_773_" class="st36" d="M31.2,14.7c-0.1,0-0.2,0-0.2,0c4.7,0.1,8.5,4,8.5,8.8c0,4.4-7.1,12.8-8.5,14.4 c0.2,0.2,0.2,0.3,0.2,0.3S40,28.3,40,23.5C40,18.7,36.1,14.7,31.2,14.7z"></path><path id="XMLID_774_" class="st36" d="M31,17.6c-0.1,0-0.2,0-0.2,0c-2.8,0-5.1,2.3-5.1,5.1s2.3,5.1,5.1,5.1c0.1,0,0.2,0,0.2,0 c-2.7-0.1-4.8-2.3-4.8-5.1S28.3,17.7,31,17.6z"></path></g><circle id="XMLID_693_" class="st3" cx="31.2" cy="22.6" r="5.1"></circle><g id="XMLID_758_" class="st5"><path id="XMLID_761_" class="st30" d="M49,19.3c0-0.4-0.4-0.8-0.8-0.8c-0.1,0-0.2,0-0.3,0.1c-0.2-0.3-0.4-0.5-0.8-0.6 c0-0.1,0-0.2,0-0.2c0-0.7-0.6-1.3-1.3-1.3c-0.4,0-0.7,0.1-0.9,0.4c-0.1-1.3-1.1-2.3-2.4-2.3c-1.1,0-2.1,0.8-2.4,1.8 c-0.1,0-0.2,0-0.3,0c-0.8,0-1.4,0.5-1.6,1.3c-0.2-0.1-0.4-0.1-0.6-0.1c-0.9,0-1.5,0.7-1.5,1.5c0,0.3,0.1,0.5,0.2,0.8h12.7 C49,19.6,49,19.4,49,19.3z"></path><path id="XMLID_760_" class="st22" d="M39.5,16.6c0.8,0,1.5,0.7,1.5,1.5c0,0.2,0,0.3-0.1,0.5c0.2-0.2,0.2-0.5,0.2-0.8 c0-0.8-0.7-1.5-1.5-1.5l0,0c-0.6,0-1.2,0.4-1.4,1C38.6,16.8,39,16.6,39.5,16.6z"></path><path id="XMLID_759_" class="st22" d="M46.8,18.1c-0.4,0.3-0.9,0.2-1.1-0.2c-0.1-0.1-0.1-0.2-0.1-0.2c0,0.2,0.1,0.3,0.1,0.4 c0.3,0.4,0.8,0.4,1.1,0.2l0,0c0.3-0.2,0.4-0.6,0.3-0.9C47.1,17.7,47,18,46.8,18.1z"></path></g></g><g id="XMLID_797_" class="st0"><rect id="XMLID_1454_" x="16.9" y="15.1" class="st1" width="32.8" height="34.5"></rect><rect id="XMLID_1456_" x="16.9" y="14.4" class="st15" width="32.8" height="4.2"></rect><rect id="XMLID_1455_" x="17.4" y="14.4" class="st3" width="31.8" height="4.2"></rect><rect id="XMLID_1457_" x="19.5" y="22.6" class="st19" width="28" height="9.8"></rect><rect id="XMLID_1466_" x="19.6" y="33.5" class="st10" width="7.2" height="7.2"></rect><circle id="XMLID_1467_" class="st1" cx="19.5" cy="16.5" r="0.5"></circle><circle id="XMLID_1468_" class="st1" cx="21.6" cy="16.5" r="0.5"></circle><circle id="XMLID_1469_" class="st1" cx="23.7" cy="16.5" r="0.5"></circle><g id="XMLID_786_" class="st5"><rect id="XMLID_787_" x="28.6" y="34" class="st22" width="16.4" height="1"></rect></g><g id="XMLID_785_" class="st5"><rect id="XMLID_788_" x="28.6" y="36.5" class="st22" width="16.4" height="1"></rect></g><g id="XMLID_789_" class="st5"><rect id="XMLID_790_" x="28.6" y="39.1" class="st22" width="9.3" height="1"></rect></g><path id="XMLID_795_" class="st11" d="M29.7,49.6c0-2,1.6-3.6,3.6-3.6c2,0,3.6,1.6,3.6,3.6c0,0,0,0,0,0h7.2V49 c0-0.6-0.5-1.1-1.1-1.1l-1.8,0c-0.2-0.9-0.6-1.8-1-2.5l1.2-1.2c0.4-0.4,0.4-1.2,0-1.6l-0.9-0.9c-0.4-0.4-1.2-0.4-1.6,0l-1.2,1.2 c-0.8-0.5-1.6-0.8-2.5-1V40c0-0.6-0.5-1.1-1.1-1.1h-1.3c-0.6,0-1.1,0.5-1.1,1.1v1.8c-0.9,0.2-1.7,0.6-2.5,1l-1.2-1.2 c-0.4-0.4-1.2-0.5-1.6,0l-0.9,0.9c-0.4,0.4-0.4,1.2,0,1.6l1.2,1.2c-0.5,0.8-0.8,1.6-1.1,2.5l-1.8,0c-0.6,0-1.1,0.5-1.1,1.1l0,0.7 L29.7,49.6C29.7,49.6,29.7,49.6,29.7,49.6z"></path><path id="XMLID_791_" class="st3" d="M44.1,49.6V49c0-0.6-0.5-1.1-1.1-1.1l-1.8,0c-0.2-0.9-0.6-1.8-1-2.5l1.2-1.2 c0.4-0.4,0.4-1.2,0-1.6l-0.9-0.9c-0.4-0.4-1.2-0.4-1.6,0l-1.2,1.2c-0.8-0.5-1.6-0.8-2.5-1V40c0-0.6-0.5-1.1-1.1-1.1h-1.3 c-0.6,0-1.1,0.5-1.1,1.1v1.8c-0.9,0.2-1.7,0.6-2.5,1l-1.2-1.2c-0.4-0.4-1.2-0.5-1.6,0l-0.9,0.9c-0.4,0.4-0.4,1.2,0,1.6l1.2,1.2 c-0.5,0.8-0.8,1.6-1.1,2.5l-1.8,0c-0.6,0-1.1,0.5-1.1,1.1l0,0.7"></path><polyline id="XMLID_767_" class="st3" points="17.4,31.9 17.4,49.1 21,49.1"></polyline><polyline id="XMLID_781_" class="st3" points="49.2,31.9 49.2,49.1 45.6,49.1"></polyline><path id="XMLID_782_" class="st16" d="M20.2,48.1c0-7.3,5.9-13.2,13.2-13.2c7.3,0,13.2,5.9,13.2,13.2"></path><line id="XMLID_784_" class="st3" x1="10.3" y1="23.3" x2="22.2" y2="23.3"></line><line id="XMLID_780_" class="st3" x1="14.1" y1="26" x2="22.1" y2="26"></line><line id="XMLID_793_" class="st3" x1="37.6" y1="29.4" x2="45.6" y2="29.4"></line><line id="XMLID_794_" class="st3" x1="53.7" y1="29.4" x2="46.5" y2="29.4"></line><line id="XMLID_796_" class="st3" x1="51.7" y1="26.5" x2="41.6" y2="26.5"></line><line id="XMLID_792_" class="st3" x1="28.6" y1="26" x2="23.2" y2="26"></line></g><g id="XMLID_728_" class="st0"><path id="XMLID_803_" class="st11" d="M44,28H12.4v18.4H44l5.8-9.4L44,28z M45.2,38.6c-0.8,0-1.5-0.7-1.5-1.5s0.7-1.5,1.5-1.5 c0.8,0,1.5,0.7,1.5,1.5S46,38.6,45.2,38.6z"></path><path id="XMLID_798_" class="st3" d="M46.7,37.1l3,0c1.1,0,2-0.9,2-2v-7.3c0-1.1-0.9-2-2-2h-28c-1.1,0-2-0.9-2-2s0.9-2,2-2h7.5 c1.1,0,2-0.9,2-2v-2.1"></path><polyline id="XMLID_799_" class="st3" points="12.9,31 12.9,46.2 38.7,46.2"></polyline><g id="XMLID_804_" class="st5"><path id="XMLID_806_" class="st12" d="M20.7,33.8c-0.4,0-0.7,0.1-0.9,0.2c-0.2,0.2-0.4,0.4-0.4,0.7c0,0.3,0.1,0.6,0.4,0.7 c0.2,0.2,0.8,0.3,1.6,0.5c0.8,0.2,1.4,0.5,1.8,0.8c0.4,0.3,0.6,0.9,0.6,1.5c0,0.7-0.3,1.2-0.8,1.6c-0.5,0.4-1.2,0.6-2,0.6 c-1.2,0-2.3-0.4-3.2-1.3l0.8-1c0.8,0.7,1.6,1,2.4,1c0.4,0,0.8-0.1,1-0.3c0.2-0.2,0.4-0.4,0.4-0.7c0-0.3-0.1-0.5-0.3-0.7 c-0.2-0.2-0.6-0.3-1.2-0.5c-0.6-0.1-1-0.3-1.3-0.4c-0.3-0.1-0.6-0.3-0.8-0.4c-0.5-0.3-0.7-0.9-0.7-1.6s0.3-1.3,0.8-1.7 c0.5-0.4,1.2-0.6,1.9-0.6c0.5,0,1,0.1,1.5,0.2c0.5,0.2,0.9,0.4,1.3,0.7l-0.7,1c-0.2-0.2-0.5-0.4-0.9-0.5 C21.5,33.9,21.1,33.8,20.7,33.8z"></path><path id="XMLID_808_" class="st12" d="M30.8,32.8V34h-4.1V36h3.7v1.2h-3.7v2.1h4.3v1.2h-5.6v-7.7H30.8z"></path><path id="XMLID_810_" class="st12" d="M38.9,39.4c-0.8,0.8-1.8,1.1-2.9,1.1c-1.2,0-2.1-0.4-2.9-1.1c-0.8-0.8-1.2-1.7-1.2-2.9 c0-1.1,0.4-2.1,1.2-2.9c0.8-0.8,1.8-1.1,2.9-1.1c1.2,0,2.1,0.4,2.9,1.1s1.2,1.7,1.2,2.9C40.1,37.7,39.7,38.7,38.9,39.4z M38,34.6 c-0.5-0.5-1.2-0.8-1.9-0.8c-0.8,0-1.4,0.3-1.9,0.8c-0.5,0.5-0.8,1.2-0.8,2s0.3,1.4,0.8,2c0.5,0.5,1.2,0.8,1.9,0.8 c0.8,0,1.4-0.3,1.9-0.8c0.5-0.5,0.8-1.2,0.8-2S38.5,35.1,38,34.6z"></path></g></g><g id="XMLID_800_" class="st0"><line id="XMLID_817_" class="st3" x1="51.7" y1="24.3" x2="43.5" y2="24.3"></line><line id="XMLID_813_" class="st3" x1="47.2" y1="30.2" x2="43.3" y2="30.2"></line><line id="XMLID_815_" class="st3" x1="49.4" y1="27.3" x2="43.5" y2="27.3"></line><line id="XMLID_820_" class="st3" x1="12.3" y1="24.3" x2="20.5" y2="24.3"></line><line id="XMLID_818_" class="st3" x1="16.8" y1="30.2" x2="20.7" y2="30.2"></line><line id="XMLID_814_" class="st3" x1="14.6" y1="27.3" x2="20.5" y2="27.3"></line><line id="XMLID_845_" class="st3" x1="32.5" y1="13.9" x2="32.5" y2="18.3"></line><rect id="XMLID_825_" x="30.6" y="12.9" class="st19" width="3.8" height="1.4"></rect><rect id="XMLID_824_" x="30.6" y="12.9" class="st3" width="3.8" height="1.4"></rect><line id="XMLID_844_" class="st3" x1="42" y1="16.9" x2="38.9" y2="19.9"></line><line id="XMLID_843_" class="st3" x1="40.5" y1="16" x2="42.8" y2="18.2"></line><line id="XMLID_842_" class="st3" x1="24.7" y1="16" x2="22.5" y2="18.2"></line><line id="XMLID_841_" class="st3" x1="23.4" y1="16.9" x2="26.5" y2="19.9"></line><circle id="XMLID_840_" class="st4" cx="32.4" cy="27.4" r="11.2"></circle><path id="XMLID_839_" class="st11" d="M32.4,16.2c6.2,0,11.2,5,11.2,11.2H32.4V16.2z"></path><g id="XMLID_768_" class="st5"><line id="XMLID_779_" class="st9" x1="32.4" y1="39.2" x2="32.4" y2="44.3"></line><path id="XMLID_776_" class="st35" d="M32.4,15.1c-6.8,0-12.4,5.5-12.4,12.4c0,6.8,5.5,12.4,12.4,12.4c6.8,0,12.4-5.5,12.4-12.4 C44.8,20.7,39.3,15.1,32.4,15.1z M32.4,38.5c-6.1,0-11-4.9-11-11c0-6.1,4.9-11,11-11s11,4.9,11,11C43.4,33.5,38.5,38.5,32.4,38.5z"></path><rect id="XMLID_775_" x="30" y="42.8" class="st13" width="2.4" height="8.3"></rect><rect id="XMLID_771_" x="32.4" y="42.8" class="st6" width="2.4" height="8.3"></rect><line id="XMLID_770_" class="st9" x1="29.9" y1="45.5" x2="35" y2="45.5"></line><line id="XMLID_769_" class="st9" x1="29.9" y1="47.2" x2="35" y2="47.2"></line></g><circle id="XMLID_837_" class="st29" cx="32.4" cy="18.1" r="0.5"></circle><circle id="XMLID_836_" class="st29" cx="37.1" cy="19.4" r="0.5"></circle><circle id="XMLID_835_" class="st29" cx="40.4" cy="22.7" r="0.5"></circle><circle id="XMLID_834_" class="st29" cx="41.7" cy="27.4" r="0.5"></circle><circle id="XMLID_833_" class="st29" cx="40.5" cy="32" r="0.5"></circle><circle id="XMLID_832_" class="st29" cx="37.1" cy="35.4" r="0.5"></circle><circle id="XMLID_831_" class="st29" cx="32.5" cy="36.7" r="0.5"></circle><circle id="XMLID_830_" class="st29" cx="27.8" cy="35.5" r="0.5"></circle><circle id="XMLID_829_" class="st29" cx="24.4" cy="32.1" r="0.5"></circle><circle id="XMLID_828_" class="st29" cx="23.2" cy="27.5" r="0.5"></circle><circle id="XMLID_827_" class="st29" cx="24.4" cy="22.8" r="0.5"></circle><circle id="XMLID_826_" class="st29" cx="27.7" cy="19.4" r="0.5"></circle><circle id="XMLID_823_" class="st4" cx="32.4" cy="27.4" r="1.1"></circle><circle id="XMLID_822_" class="st3" cx="32.4" cy="27.4" r="1.1"></circle><line id="XMLID_821_" class="st3" x1="33.6" y1="27.4" x2="39.2" y2="27.4"></line><line id="XMLID_816_" class="st3" x1="20.3" y1="51.1" x2="43.7" y2="51.1"></line></g><g id="XMLID_865_" class="st0"><g id="XMLID_860_" class="st5"><path id="XMLID_866_" class="st12" d="M23.8,50.6V29.2c0-0.6,0.5-1,1-1h17c0.6,0,1,0.5,1,1v21.4H23.8z"></path><line id="XMLID_853_" class="st9" x1="23.8" y1="50.9" x2="23.8" y2="43.4"></line><path id="XMLID_852_" class="st9" d="M32.6,28.2h9.6c0.4,0,0.7,0.3,0.7,0.7v21.9"></path><line id="XMLID_863_" class="st9" x1="30.9" y1="30.3" x2="35.8" y2="30.3"></line><rect id="XMLID_862_" x="25.3" y="32" class="st30" width="16.1" height="18.6"></rect><polygon id="XMLID_861_" class="st22" points="40.7,32 40.7,49.8 25.3,49.8 25.3,50.5 41.4,50.5 41.4,32"></polygon></g><circle id="XMLID_857_" class="st3" cx="23.3" cy="15.7" r="0.9"></circle><circle id="XMLID_864_" class="st3" cx="40.4" cy="14.4" r="1.3"></circle><circle id="XMLID_859_" class="st3" cx="48.2" cy="20.7" r="0.9"></circle><circle id="XMLID_858_" class="st3" cx="32.7" cy="20.7" r="1.6"></circle><path id="XMLID_854_" class="st11" d="M32,41.6l-1.1-5.7c0.6-1.4,0.9-2.8,0.9-4.4c0-6-4.9-10.9-10.9-10.9c-6,0-10.9,4.9-10.9,10.9 c0,6,4.9,10.9,10.9,10.9c2.1,0,4.1-0.6,5.8-1.7L32,41.6z"></path><g id="XMLID_846_" class="st5"><path id="XMLID_847_" class="st17" d="M20.8,36.5v-0.9c-1.1-0.1-2.1-0.6-3-1.3l0.9-1c0.7,0.6,1.4,0.9,2.1,1v-2.3 c-0.9-0.2-1.6-0.5-2-0.9c-0.4-0.4-0.6-0.9-0.6-1.6c0-0.7,0.2-1.3,0.7-1.7c0.5-0.4,1.1-0.7,1.9-0.7v-0.6h0.8v0.6 c0.9,0.1,1.7,0.4,2.5,0.9l-0.8,1.1c-0.5-0.4-1.1-0.6-1.7-0.7v2.3h0c0.9,0.2,1.6,0.5,2,0.9c0.4,0.4,0.7,0.9,0.7,1.6 c0,0.7-0.2,1.3-0.7,1.7c-0.5,0.4-1.2,0.7-2,0.7v0.9H20.8z M19.9,28.7c-0.2,0.2-0.3,0.4-0.3,0.7c0,0.3,0.1,0.5,0.2,0.6 c0.2,0.2,0.5,0.3,0.9,0.5v-2.1C20.4,28.4,20.1,28.5,19.9,28.7z M22.5,34c0.2-0.2,0.3-0.4,0.3-0.7c0-0.3-0.1-0.5-0.3-0.7 c-0.2-0.2-0.5-0.3-1-0.5v2.2C21.9,34.3,22.2,34.1,22.5,34z"></path></g><line id="XMLID_851_" class="st3" x1="18.3" y1="50.9" x2="47.1" y2="50.9"></line><line id="XMLID_838_" class="st3" x1="36.5" y1="20.7" x2="45.7" y2="20.7"></line><line id="XMLID_855_" class="st3" x1="39.7" y1="24.5" x2="53.9" y2="24.5"></line><line id="XMLID_856_" class="st3" x1="32.7" y1="24.5" x2="37.7" y2="24.5"></line></g><g id="XMLID_904_" class="st0"><path id="XMLID_887_" class="st15" d="M32.8,33.2l0.9-5.1c-0.5-1.2-0.8-2.5-0.8-3.9c0-5.3,4.3-9.6,9.6-9.6c5.3,0,9.6,4.3,9.6,9.6 c0,5.3-4.3,9.6-9.6,9.6c-1.9,0-3.6-0.5-5.1-1.5L32.8,33.2z"></path><line id="XMLID_877_" class="st3" x1="17.4" y1="21.1" x2="31.5" y2="21.1"></line><line id="XMLID_901_" class="st3" x1="11.9" y1="23.8" x2="22.2" y2="23.8"></line><line id="XMLID_903_" class="st3" x1="27" y1="23.8" x2="23.7" y2="23.8"></line><line id="XMLID_902_" class="st3" x1="15.3" y1="26.9" x2="29.1" y2="26.9"></line><g id="XMLID_867_" class="st5"><path id="XMLID_876_" class="st12" d="M39.3,41.6h-0.5c0.7,0,1.3-0.6,1.3-1.3c0-0.7-0.6-1.3-1.3-1.3h-4.9h-3.1c0,0,1.1-2.7,1.1-4 c0-0.6,0.1-1.8-0.2-2.3c-0.1-0.2-1.2-0.2-1.3,0c0,0-1,3.1-1.6,3.9c-0.4,0.5-1.8,2.3-1.8,2.3h-2.2l-1.2,8.4h2.8 c0.3,0,0.6,0.1,0.7,0.3l1.3,1.3c0.2,0.2,0.6,0.4,0.9,0.4h7.4c0.7,0,1.3-0.6,1.3-1.3c0-0.7-0.6-1.3-1.3-1.3h1.4 c0.7,0,1.3-0.6,1.3-1.3c0-0.7-0.6-1.3-1.3-1.3h1.4c0.7,0,1.3-0.6,1.3-1.3S40,41.6,39.3,41.6z"></path><path id="XMLID_879_" class="st20" d="M30.7,37.9h0.4c0.3-0.9,0.7-2.1,0.7-2.9c0-0.3,0-0.9,0-1.4c0,0.1,0,0.2,0,0.3 C31.8,35.2,30.7,37.9,30.7,37.9z"></path><path id="XMLID_882_" class="st30" d="M36.5,48.3h-7.4c-0.3,0-0.7-0.1-0.9-0.4L27,46.6c-0.2-0.2-0.5-0.3-0.7-0.3h-2.7l-0.1,1.1 h2.8c0.3,0,0.6,0.1,0.7,0.3l1.3,1.3c0.2,0.2,0.6,0.4,0.9,0.4h7.4c0.7,0,1.3-0.6,1.3-1.3c0-0.2,0-0.4-0.1-0.5 C37.5,47.9,37.1,48.3,36.5,48.3z"></path><path id="XMLID_873_" class="st9" d="M36.9,44.1h2.2c0.7,0,1.3-0.6,1.3-1.3l0,0c0-0.7-0.6-1.3-1.3-1.3h-2.2"></path><path id="XMLID_872_" class="st9" d="M34.6,46.7h3.1c0.7,0,1.3-0.6,1.3-1.3l0,0c0-0.7-0.6-1.3-1.3-1.3h-3.1"></path><path id="XMLID_871_" class="st9" d="M35.2,46.7h1.2c0.7,0,1.3,0.6,1.3,1.3l0,0c0,0.7-0.6,1.3-1.3,1.3H29c-0.3,0-0.7-0.1-0.9-0.4 l-1.3-1.3c-0.2-0.2-0.5-0.3-0.7-0.3h-2.8"></path><path id="XMLID_870_" class="st9" d="M34.6,41.6h4c0.7,0,1.3-0.6,1.3-1.3l0,0c0-0.7-0.6-1.3-1.3-1.3h-4.9h-3.1c0,0,1.1-2.7,1.1-4 c0-0.6,0.1-1.8-0.2-2.3c-0.1-0.2-1.2-0.2-1.3,0c0,0-1,3.1-1.6,3.9c-0.4,0.5-1.8,2.3-1.8,2.3h-2.2"></path><rect id="XMLID_869_" x="16.9" y="37.6" class="st8" width="8.6" height="11"></rect><rect id="XMLID_868_" x="16.9" y="37.6" class="st37" width="8.6" height="3.3"></rect></g><circle id="XMLID_890_" class="st3" cx="37" cy="24" r="1.4"></circle><circle id="XMLID_874_" class="st3" cx="42.4" cy="24" r="1.4"></circle><circle id="XMLID_900_" class="st3" cx="47.9" cy="24" r="1.4"></circle></g><text stroke="none" style="outline-style:none;" id="text1" stroke-width="1px" x="31.429594px" text-rendering="geometricPrecision" font-family="Helvetica-BoldOblique" fill="#000000" font-size="6px" y="48.028515px" transform="" text-anchor="middle">Cloud Engine</text></svg>