<?xml version="1.0" encoding="UTF-8"?>
<svg width="309px" height="255px" viewBox="0 0 309 255" version="1.1" xmlns="http://www.w3.org/2000/svg" xmlns:xlink="http://www.w3.org/1999/xlink">
    <title>多利1.0</title>
    <g id="页面-1" stroke="none" stroke-width="1" fill="none" fill-rule="evenodd">
        <g id="DORY" transform="translate(-942.000000, -83.000000)">
            <g id="多利1.0" transform="translate(1096.500000, 210.500000) scale(-1, 1) translate(-1096.500000, -210.500000) translate(942.000000, 83.000000)">
                <path d="M40.5696445,128.279061 C29.5237623,135.756712 18.2811142,139.495537 6.84170025,139.495537 C-1.97109086,151.473378 -2.58488174,187.365628 6.84170025,198.718239 C21.8840781,192.611335 37.4275737,196.625872 53.472187,210.761851 L53.4722198,210.761814 C59.7881697,216.326431 69.4192725,215.717356 74.98389,209.401406 C78.2996944,205.637903 79.5515554,200.483916 78.3315928,195.618713 C78.3315928,195.618713 78.3315928,195.618713 78.3315928,195.618713 C74.1020359,178.751266 82.2004302,172.003062 79.0835283,145.871996 C79.0835283,145.871996 79.0835283,145.871996 79.0835283,145.871996 C77.4618914,132.276732 65.1261562,122.57019 51.5308927,124.191827 C47.6034011,124.660297 43.8450101,126.061713 40.5696222,128.279028 Z" id="路径-24" fill="#FFC52D" transform="translate(39.992155, 165.871996) scale(-1, -1) translate(-39.992155, -165.871996) "></path>
                <path d="M79.8488462,156.828664 C80.5954965,170.384416 78.2412244,185.318711 73.1426104,192.248455 C61.7031965,192.248455 50.4605484,195.98728 39.4146662,203.464931 C38.1078756,204.349627 36.724176,205.104412 35.283526,205.721885 C43.9745886,190.072548 56.5943179,182.248455 73.1426104,182.248455 C76.9321106,177.097983 79.2056156,167.525737 79.8167235,157.384153 Z" id="形状结合" fill="#162942"></path>
                <path d="M32.7831503,126.010213 C46.6148871,135.995253 60.0680405,138.333766 73.1426104,133.025753 C78.4408022,139.406466 80.5672605,153.5392 79.8489206,166.82095 C79.3037117,156.948622 77.1143615,147.809008 73.1426104,143.025753 C56.5252292,149.772077 43.1093933,144.166478 32.8951025,126.208958 Z" id="形状结合" fill="#162942"></path>
                <path d="M174.09996,0 L183.90004,0 C250.282459,1.62274569e-14 304.096042,53.8135829 304.096042,120.196002 C304.096042,121.797814 304.064021,123.399467 304,125 L303.796165,130.095885 C301.116861,197.078473 246.036153,250 179,250 C111.963847,250 56.8831389,197.078473 54.2038354,130.095885 L54,125 C51.3468249,58.6706236 102.966585,2.74921662 169.295962,0.0960415668 C170.896495,0.032020252 172.498147,1.4505103e-14 174.09996,0 Z" id="矩形" fill="#5FADFF"></path>
                <path d="M136.803998,-2.84217094e-14 C203.186417,-1.21942525e-14 257,53.8135829 257,120.196002 C257,121.797814 256.96798,123.399467 256.903958,125 L256.700123,130.095885 C256.022453,147.037645 251.992534,163.079884 245.2648,177.593824 C229.331425,172.738434 210.658682,165.551015 191.438067,163.530735 C130.908591,157.168479 112.098185,174.357302 96.2904985,153.352492 C80.4828117,132.347682 140.72944,107.063335 123.671781,63.4847996 C112.300008,34.432443 89.0456113,27.0043498 53.9085907,41.2005199 C56.1390193,32.430738 59.4183253,24.6867921 63.7465087,17.9686823 C80.7940087,7.39704306 100.7261,0.954994381 122.19992,0.0960415668 C123.800453,0.032020252 125.402106,-1.39166065e-14 127.003918,-2.84217094e-14 L136.803998,-2.84217094e-14 Z" id="形状结合" fill="#162942" transform="translate(155.454295, 88.796912) scale(-1, 1) translate(-155.454295, -88.796912) "></path>
                <path d="M96.0319545,120.991675 C95.2158103,110.575436 107.212666,93.5657734 135.500101,93.5657734 C163.787535,93.5657734 189,125.532516 185.709069,138.677807 C182.418138,151.823098 151.871264,148.876931 130.9372,146.332033 C110.003135,143.787135 96.8480987,131.407914 96.0319545,120.991675 Z" id="路径-14" fill="#5FADFF"></path>
                <circle id="椭圆形" fill="#162942" cx="241" cy="79" r="29"></circle>
                <path d="M254.565224,61.0814368 C248.80606,61.9185675 243.153816,75.3840886 247.593675,82.4494637 C252.033533,89.5148387 264.432032,85.2530531 264.962443,75.5842962 C265.492854,65.9155394 260.324387,60.2443062 254.565224,61.0814368 Z" id="路径-21" fill="#E0F3FF" transform="translate(255.500000, 73.480377) scale(-1, 1) rotate(10.000000) translate(-255.500000, -73.480377) "></path>
                <path d="M72.2520496,200.843818 C58.6159927,207.026113 52.8666495,227.822945 63.5416739,233.529547 C74.2166983,239.236149 80.8219287,233.150699 87.3371273,218.186682 C93.8523259,203.222666 135.821929,193.976549 160.504658,163.222252 C177.839495,125.769916 206.212776,62 200.208491,62 C141.665681,91.8715267 85.8881065,194.661523 72.2520496,200.843818 Z" id="路径-25" fill="#FFC52D" transform="translate(129.514112, 148.822008) scale(-1, 1) rotate(20.000000) translate(-129.514112, -148.822008) "></path>
            </g>
        </g>
    </g>
</svg>